<svg width="46px" height="46px" xmlns="http://www.w3.org/2000/svg" viewBox="0 0 46 46">
<style type="text/css">
	.st0{fill:#51A48E;}
</style>
<path class="st0" d="M23,3.6c10.7,0,19.4,8.7,19.4,19.4c0,10.7-8.7,19.4-19.4,19.4C12.3,42.4,3.6,33.7,3.6,23
	C3.6,12.3,12.3,3.6,23,3.6z M39.9,23c0-9.3-7.7-16.9-16.9-16.9C13.6,6.1,6.1,13.8,6.1,23c0,9.4,7.6,16.9,16.9,16.9
	S39.9,32.3,39.9,23z M28.2,30l-6.4-4.6c-0.2-0.2-0.3-0.5-0.3-0.8V12.1c0-0.5,0.4-0.9,0.9-0.9h1.1c0.5,0,0.9,0.5,0.9,0.9v11.5l5.5,4
	c0.4,0.3,0.5,0.9,0.2,1.3l-0.7,0.9C29.3,30.1,28.6,30.3,28.2,30z"/>
</svg>
