<svg width="46px" height="46px" xmlns="http://www.w3.org/2000/svg" viewBox="0 0 46 46">
<style type="text/css">
	.st0{fill:#51A48E;}
</style>
<path class="st0" d="M32.6,16.6c0.5-0.5,1.3-0.5,1.8-0.2c0.5,0.5,0.5,1.3,0.2,1.8L27,27.6c0.6,0.8,1,1.8,1,2.9c0,2.8-2.3,5-5,5
	c-2.8,0-5-2.2-5-5c0-2.7,2.2-5,5-5c0.7,0,1.4,0.2,2,0.5L32.6,16.6z M23,33c1.3,0,2.5-1.1,2.5-2.5c0-1.3-1.2-2.5-2.5-2.5
	c-1.4,0-2.5,1.2-2.5,2.5C20.5,31.9,21.6,33,23,33z M23,5.5c12.4,0,22.5,10.1,22.5,22.5c0,4.1-1.2,8-3.1,11.3
	c-0.4,0.8-1.3,1.2-2.1,1.2H5.7c-0.9,0-1.7-0.4-2.1-1.2c-2-3.3-3-7.2-3-11.3C0.5,15.6,10.5,5.5,23,5.5z M40.3,38
	c1.8-3,2.7-6.4,2.7-10c0-11-9-20-20-20C11.9,8,3,17,3,28c0,3.6,0.9,7,2.7,10.1L40.3,38z"/>
</svg>
