<svg width="70" height="23" viewBox="0 0 70 23" fill="none" xmlns="http://www.w3.org/2000/svg">
<g clip-path="url(#clip0_1032_2724)">
<path d="M49.2524 17.6768V-0.23877H52.8166V17.6768H49.2524Z" fill="#F7A600"/>
<path d="M7.71407 22.9986H0.0732422V5.08301H7.40682C10.971 5.08301 13.0477 7.04563 13.0477 10.1156C13.0477 12.1028 11.714 13.3871 10.7908 13.8147C11.8927 14.3176 13.3033 15.4497 13.3033 17.8413C13.3033 21.1868 10.971 22.9986 7.71407 22.9986ZM7.12471 8.20371H3.63738V12.3303H7.12471C8.63727 12.3303 9.48359 11.4998 9.48359 10.2663C9.48359 9.03422 8.63727 8.20371 7.12471 8.20371ZM7.35515 15.4757H3.63738V19.8792H7.35515C8.97101 19.8792 9.73913 18.8733 9.73913 17.6645C9.73913 16.457 8.96958 15.4757 7.35515 15.4757Z" fill="white"/>
<path d="M24.1743 15.6511V22.9986H20.6353V15.6511L15.148 5.08301H19.0194L22.4299 12.3043L25.7888 5.08301H29.6602L24.1743 15.6511Z" fill="white"/>
<path d="M39.7648 22.9986H32.1239V5.08301H39.4575C43.0216 5.08301 45.0984 7.04563 45.0984 10.1156C45.0984 12.1028 43.7646 13.3871 42.8414 13.8147C43.9434 14.3176 45.354 15.4497 45.354 17.8413C45.354 21.1868 43.0216 22.9986 39.7648 22.9986ZM39.1754 8.20371H35.688V12.3303H39.1754C40.6879 12.3303 41.5342 11.4998 41.5342 10.2663C41.5342 9.03422 40.6879 8.20371 39.1754 8.20371ZM39.4058 15.4757H35.688V19.8792H39.4058C41.0217 19.8792 41.7898 18.8733 41.7898 17.6645C41.7898 16.457 41.0217 15.4757 39.4058 15.4757Z" fill="white"/>
<path d="M64.3037 8.20371V22.9999H60.7395V8.20371H55.9701V5.08301H69.0731V8.20371H64.3037Z" fill="white"/>
</g>
<defs>
<clipPath id="clip0_1032_2724">
<rect width="69" height="23" fill="white" transform="translate(0.0732422)"/>
</clipPath>
</defs>
</svg>
