<svg width="569" height="2146" viewBox="0 0 569 2146" fill="none" xmlns="http://www.w3.org/2000/svg">
<path d="M440.507 1798.24L417.171 1698.12M440.507 1798.24L460.232 1698.12M440.507 1798.24L501.305 1872.99M440.507 1798.24L400.821 1835.86M417.171 1698.12L461.066 1560.71M417.171 1698.12L404.276 1600.05M417.171 1698.12L378.833 1732.85M417.171 1698.12L400.821 1835.86M368.832 1330.47L438.563 1162.05M368.832 1330.47L415.782 1427.08M368.832 1330.47L472.512 1322.31M368.832 1330.47L343.273 1165.29M368.832 1330.47L384.163 1447.07M368.832 1330.47L341.05 1509.72M368.832 1330.47L455.231 1294.01M368.832 1330.47L304.791 1212.66M438.563 1162.05L455.231 1224.54M438.563 1162.05L478.963 1077.04L488.284 1171.16M438.563 1162.05L468.844 1183.12M438.563 1162.05L343.273 1165.29M460.232 1698.12L461.066 1560.71M460.232 1698.12L536.63 1571.89M460.232 1698.12L550.31 1721.52M461.066 1560.71L471.961 1519.43M461.066 1560.71L402.447 1463.03M461.066 1560.71L536.63 1571.89M471.961 1519.43L497.872 1463.03M471.961 1519.43L536.63 1571.89M471.961 1519.43L402.447 1463.03M497.872 1463.03L472.512 1405.71M497.872 1463.03H402.447M497.872 1463.03L517.183 1395.46M497.872 1463.03L536.63 1571.89M472.512 1405.71L497.872 1363.83M472.512 1405.71L517.183 1395.46M472.512 1405.71L415.782 1427.08M497.872 1363.83L503.015 1319.91M497.872 1363.83L517.183 1395.46M497.872 1363.83L472.512 1322.31M503.015 1319.91L455.231 1224.54M503.015 1319.91L472.512 1322.31M503.015 1319.91L488.284 1171.16M503.015 1319.91L527.185 1147.22M503.015 1319.91L543.298 1251.63M503.015 1319.91L455.231 1294.01M455.231 1224.54V1294.01M455.231 1224.54L468.844 1183.12M455.231 1224.54L488.284 1171.16M402.447 1463.03L415.782 1427.08M402.447 1463.03L404.276 1600.05M402.447 1463.03L384.163 1447.07M536.63 1571.89L517.183 1395.46M536.63 1571.89L550.31 1721.52M536.63 1571.89L543.298 1251.63M517.183 1395.46L543.298 1251.63M472.512 1322.31L455.231 1294.01M468.844 1183.12L488.284 1171.16M488.284 1171.16L527.185 1147.22M343.273 1165.29L444.397 1026.48L527.185 1147.22M343.273 1165.29L304.791 1212.66M527.185 1147.22L543.298 1251.63M527.185 1147.22L543.298 1034.6M404.276 1600.05L378.833 1732.85M404.276 1600.05L384.163 1447.07M378.833 1732.85L400.821 1835.86M378.833 1732.85L384.163 1447.07M378.833 1732.85L341.05 1509.72M378.833 1732.85L326.571 1883.88M400.821 1835.86L326.571 1883.88M400.821 1835.86L428.046 1956.64M501.305 1872.99L550.31 1721.52M501.305 1872.99L545.242 1798.24M501.305 1872.99L527.045 2063.07M501.305 1872.99L428.046 1956.64M501.305 1872.99L566.645 1949.71M550.31 1721.52L545.242 1798.24M384.163 1447.07L341.05 1509.72M543.298 1251.63V1034.71M326.571 1883.88L354.291 1949.71M545.242 1798.24L566.645 1949.71M442.73 255.826L417.171 333.714M442.73 255.826L460.232 333.714M442.73 255.826L381.517 269.422M442.73 255.826L480.021 157.816M442.73 255.826H504.682M417.171 333.714L468.844 439.286M417.171 333.714L404.277 431.779M417.171 333.714L381.517 269.422M417.171 333.714H460.232M368.832 701.338L405.276 793.395M368.832 701.338L417.171 627.261M368.832 701.338L478.975 710.004M368.832 701.338L384.163 584.74M368.832 701.338L341.05 522.101M368.832 701.338L343.273 834.359M368.832 701.338L498.408 672.546M368.832 701.338L241.431 609.75M368.832 701.338L318.651 696.375M405.276 793.395L399.391 893.962M405.276 793.395L343.273 834.359M405.276 793.395L453.009 760.056M399.391 893.962L468.844 848.67M399.391 893.962L480.097 957.291M399.391 893.962L376.333 981.69M460.232 333.714L468.844 439.286M460.232 333.714L548.298 477.292M460.232 333.714L536.63 298.993M468.844 439.286L475.573 489.124M468.844 439.286L442.73 494.467M468.844 439.286L548.298 477.292M468.844 439.286L404.277 431.779M475.573 489.124L485.791 564.799M475.573 489.124L548.298 477.292M475.573 489.124L442.73 494.467M485.791 564.799L493.922 634.239M485.791 564.799L442.73 494.467M485.791 564.799L548.298 477.292M485.791 564.799L417.171 627.261M485.791 564.799L556.25 663.21M493.922 634.239L498.408 672.546M493.922 634.239L556.25 663.21M493.922 634.239L417.171 627.261M498.408 672.546L503.015 711.896M498.408 672.546L556.25 663.21M498.408 672.546L478.975 710.004M503.015 711.896L478.975 710.004M503.015 711.896L473.09 898.829M503.015 711.896L521.229 842.015M503.015 711.896L543.298 780.165M503.015 711.896L468.844 848.67M442.73 494.467L417.171 627.261M442.73 494.467L404.277 431.779M442.73 494.467L384.163 584.74M417.171 627.261L384.163 584.74M548.298 477.292L556.25 663.21M548.298 477.292L536.63 298.993M556.25 663.21L543.298 780.165M478.975 710.004L453.009 760.056M453.009 760.056L468.844 848.67M468.844 848.67L473.09 898.829M473.09 898.829L480.097 957.291M473.09 898.829L503.015 906.749M480.097 957.291L503.015 906.749M480.097 957.291L511.605 947.438M480.097 957.291L376.333 981.69M480.097 957.291L444.397 1026.76L376.333 981.69M521.229 842.015L527.185 884.564M521.229 842.015L503.015 906.749M521.229 842.015L543.298 780.165M527.185 884.564L543.298 780.165M527.185 884.564L503.015 906.749M527.185 884.564L511.605 947.438M527.185 884.564L543.298 1034.71M404.277 431.779L381.517 269.422M404.277 431.779L384.163 584.74M381.517 269.422L480.021 157.816M381.517 269.422L384.163 584.74M381.517 269.422L341.05 522.101M381.517 269.422L475.573 86.5364M381.517 269.422L357.756 164.251M480.021 157.816L504.682 255.826M480.021 157.816L545.52 255.826M480.021 157.816L475.573 86.5364M504.682 255.826L536.63 298.993M536.63 298.993L545.52 255.826M384.163 584.74L341.05 522.101M341.05 522.101L241.431 609.75M341.05 522.101L163.144 627.261M543.298 780.165V1034.71M475.573 86.5364L545.52 255.826M475.573 86.5364L559.715 69.2114M475.573 86.5364L368.832 1.8916M475.573 86.5364L357.756 164.251M475.573 86.5364L378.051 91.2389M545.52 255.826L559.715 69.2114M511.605 947.438L543.298 1034.71M511.605 947.438L478.846 1076.76M511.605 947.438L527.185 1147.32M376.333 981.69L343.273 834.359M376.333 981.69L343.273 1165.38M376.333 981.69L314.196 878.039L343.273 834.359M376.333 981.69L304.791 1212.66M343.273 834.359L163.144 627.261M343.273 834.359L318.651 696.375M559.715 69.2114L536.63 18.2266L368.832 1.8916M241.431 609.75L163.144 627.261M241.431 609.75L318.651 696.375M368.832 1.8916L378.051 91.2389M368.832 1.8916L217.671 33.0765L378.051 91.2389M357.756 164.251L378.051 91.2389M527.045 2063.07L428.046 1956.64M527.045 2063.07L566.645 1949.71M527.045 2063.07L321.621 2052.67M527.045 2063.07L382.014 2136.28M527.045 2063.07L554.622 2126.83M428.046 1956.64L321.621 2052.67M428.046 1956.64L211.731 2027.43M428.046 1956.64L354.291 1949.71M321.621 2052.67L211.731 2027.43M321.621 2052.67L126.832 2143.74M321.621 2052.67L382.014 2136.28M211.731 2027.43L354.291 1949.71M211.731 2027.43L148.221 2101.96M566.645 1949.71L554.622 2126.83M148.221 2101.96L126.832 2143.74M148.221 2101.96L1.9763 2126.83L126.832 2143.74M126.832 2143.74L382.014 2136.28M382.014 2136.28L554.622 2126.83" stroke="#00D7B0" stroke-opacity="0.15"/>
<path d="M378.833 1729.81C380.06 1729.81 381.055 1730.81 381.055 1732.03C381.055 1733.26 380.06 1734.26 378.833 1734.26C377.605 1734.26 376.61 1733.26 376.61 1732.03C376.61 1730.81 377.605 1729.81 378.833 1729.81Z" fill="#00D7B0"/>
<path d="M417.171 1695.66C418.398 1695.66 419.393 1696.66 419.393 1697.89C419.393 1699.11 418.398 1700.11 417.171 1700.11C415.944 1700.11 414.948 1699.11 414.948 1697.89C414.948 1696.66 415.944 1695.66 417.171 1695.66Z" fill="#00D7B0"/>
<path d="M460.51 1695.66C461.737 1695.66 462.732 1696.66 462.732 1697.89C462.732 1699.11 461.737 1700.11 460.51 1700.11C459.282 1700.11 458.287 1699.11 458.287 1697.89C458.287 1696.66 459.282 1695.66 460.51 1695.66Z" fill="#00D7B0"/>
<path d="M440.42 1796.26C441.648 1796.26 442.643 1797.26 442.643 1798.48C442.643 1799.71 441.648 1800.71 440.42 1800.71C439.193 1800.71 438.198 1799.71 438.198 1798.48C438.198 1797.26 439.193 1796.26 440.42 1796.26Z" fill="#00D7B0"/>
<path d="M536.631 1569.43C537.858 1569.43 538.853 1570.42 538.853 1571.65C538.853 1572.88 537.858 1573.87 536.631 1573.87C535.403 1573.87 534.408 1572.88 534.408 1571.65C534.408 1570.42 535.403 1569.43 536.631 1569.43Z" fill="#00D7B0"/>
<path d="M461.621 1558.77C462.848 1558.77 463.843 1559.76 463.843 1560.99C463.843 1562.22 462.848 1563.21 461.621 1563.21C460.393 1563.21 459.398 1562.22 459.398 1560.99C459.398 1559.76 460.393 1558.77 461.621 1558.77Z" fill="#00D7B0"/>
<path d="M403.836 1597.48C405.063 1597.48 406.058 1598.47 406.058 1599.7C406.058 1600.93 405.063 1601.92 403.836 1601.92C402.609 1601.92 401.613 1600.93 401.613 1599.7C401.613 1598.47 402.609 1597.48 403.836 1597.48Z" fill="#00D7B0"/>
<path d="M341.05 1507.06C342.278 1507.06 343.273 1508.05 343.273 1509.28C343.273 1510.51 342.278 1511.5 341.05 1511.5C339.823 1511.5 338.828 1510.51 338.828 1509.28C338.828 1508.05 339.823 1507.06 341.05 1507.06Z" fill="#00D7B0"/>
<path d="M383.833 1445.63C385.061 1445.63 386.056 1446.62 386.056 1447.85C386.056 1449.08 385.061 1450.07 383.833 1450.07C382.606 1450.07 381.611 1449.08 381.611 1447.85C381.611 1446.62 382.606 1445.63 383.833 1445.63Z" fill="#00D7B0"/>
<path d="M402.725 1460.63C403.952 1460.63 404.947 1461.63 404.947 1462.85C404.947 1464.08 403.952 1465.08 402.725 1465.08C401.497 1465.08 400.502 1464.08 400.502 1462.85C400.502 1461.63 401.497 1460.63 402.725 1460.63Z" fill="#00D7B0"/>
<path d="M497.345 1460.63C498.573 1460.63 499.568 1461.63 499.568 1462.85C499.568 1464.08 498.573 1465.08 497.345 1465.08C496.118 1465.08 495.123 1464.08 495.123 1462.85C495.123 1461.63 496.118 1460.63 497.345 1460.63Z" fill="#00D7B0"/>
<path d="M415.504 1425.42C416.732 1425.42 417.727 1426.41 417.727 1427.64C417.727 1428.87 416.732 1429.86 415.504 1429.86C414.277 1429.86 413.282 1428.87 413.282 1427.64C413.282 1426.41 414.277 1425.42 415.504 1425.42Z" fill="#00D7B0"/>
<path d="M456.065 1292.07C457.292 1292.07 458.287 1293.06 458.287 1294.29C458.287 1295.52 457.292 1296.51 456.065 1296.51C454.837 1296.51 453.842 1295.52 453.842 1294.29C453.842 1293.06 454.837 1292.07 456.065 1292.07Z" fill="#00D7B0"/>
<path d="M368.832 1327.92C370.059 1327.92 371.054 1328.91 371.054 1330.14C371.054 1331.37 370.059 1332.36 368.832 1332.36C367.604 1332.36 366.609 1331.37 366.609 1330.14C366.609 1328.91 367.604 1327.92 368.832 1327.92Z" fill="#00D7B0"/>
<path d="M503.293 1317.22C504.52 1317.22 505.515 1318.22 505.515 1319.44C505.515 1320.67 504.52 1321.67 503.293 1321.67C502.066 1321.67 501.07 1320.67 501.07 1319.44C501.07 1318.22 502.066 1317.22 503.293 1317.22Z" fill="#00D7B0"/>
<path d="M468.844 1180.11C470.071 1180.11 471.067 1181.11 471.067 1182.34C471.067 1183.56 470.071 1184.56 468.844 1184.56C467.617 1184.56 466.622 1183.56 466.622 1182.34C466.622 1181.11 467.617 1180.11 468.844 1180.11Z" fill="#00D7B0"/>
<path d="M527.185 1144.47C528.412 1144.47 529.407 1145.47 529.407 1146.69C529.407 1147.92 528.412 1148.92 527.185 1148.92C525.957 1148.92 524.962 1147.92 524.962 1146.69C524.962 1145.47 525.957 1144.47 527.185 1144.47Z" fill="#00D7B0"/>
<path d="M438.285 1160.38C439.512 1160.38 440.507 1161.38 440.507 1162.61C440.507 1163.83 439.512 1164.83 438.285 1164.83C437.057 1164.83 436.062 1163.83 436.062 1162.61C436.062 1161.38 437.057 1160.38 438.285 1160.38Z" fill="#00D7B0"/>
<path d="M343.273 1162.85C344.5 1162.85 345.495 1163.84 345.495 1165.07C345.495 1166.3 344.5 1167.29 343.273 1167.29C342.046 1167.29 341.05 1166.3 341.05 1165.07C341.05 1163.84 342.046 1162.85 343.273 1162.85Z" fill="#00D7B0"/>
<path d="M444.952 1024.25C446.18 1024.25 447.175 1025.25 447.175 1026.48C447.175 1027.7 446.18 1028.7 444.952 1028.7C443.725 1028.7 442.73 1027.7 442.73 1026.48C442.73 1025.25 443.725 1024.25 444.952 1024.25Z" fill="#00D7B0"/>
<path d="M376.61 979.248C377.838 979.248 378.833 980.243 378.833 981.471C378.833 982.698 377.838 983.693 376.61 983.693C375.383 983.693 374.388 982.698 374.388 981.471C374.388 980.243 375.383 979.248 376.61 979.248Z" fill="#00D7B0"/>
<path d="M479.957 955.356C481.184 955.356 482.179 956.351 482.179 957.579C482.179 958.806 481.184 959.801 479.957 959.801C478.729 959.801 477.734 958.806 477.734 957.579C477.734 956.351 478.729 955.356 479.957 955.356Z" fill="#00D7B0"/>
<path d="M468.844 846.454C470.071 846.454 471.067 847.449 471.067 848.676C471.067 849.904 470.071 850.899 468.844 850.899C467.617 850.899 466.622 849.904 466.622 848.676C466.622 847.449 467.617 846.454 468.844 846.454Z" fill="#00D7B0"/>
<path d="M527.185 882.014C528.412 882.014 529.407 883.009 529.407 884.236C529.407 885.464 528.412 886.459 527.185 886.459C525.957 886.459 524.962 885.464 524.962 884.236C524.962 883.009 525.957 882.014 527.185 882.014Z" fill="#00D7B0"/>
<path d="M542.742 777.556C543.97 777.556 544.965 778.551 544.965 779.779C544.965 781.006 543.97 782.001 542.742 782.001C541.515 782.001 540.52 781.006 540.52 779.779C540.52 778.551 541.515 777.556 542.742 777.556Z" fill="#00D7B0"/>
<path d="M453.287 758.11C454.514 758.11 455.509 759.105 455.509 760.332C455.509 761.56 454.514 762.555 453.287 762.555C452.059 762.555 451.064 761.56 451.064 760.332C451.064 759.105 452.059 758.11 453.287 758.11Z" fill="#00D7B0"/>
<path d="M502.737 709.77C503.965 709.77 504.96 710.765 504.96 711.993C504.96 713.22 503.965 714.215 502.737 714.215C501.51 714.215 500.515 713.22 500.515 711.993C500.515 710.765 501.51 709.77 502.737 709.77Z" fill="#00D7B0"/>
<path d="M494.195 631.983C495.423 631.983 496.418 632.978 496.418 634.206C496.418 635.433 495.423 636.428 494.195 636.428C492.968 636.428 491.973 635.433 491.973 634.206C491.973 632.978 492.968 631.983 494.195 631.983Z" fill="#00D7B0"/>
<path d="M416.615 624.76C417.843 624.76 418.838 625.755 418.838 626.982C418.838 628.21 417.843 629.205 416.615 629.205C415.388 629.205 414.393 628.21 414.393 626.982C414.393 625.755 415.388 624.76 416.615 624.76Z" fill="#00D7B0"/>
<path d="M341.05 520.303C342.278 520.303 343.273 521.298 343.273 522.526C343.273 523.753 342.278 524.748 341.05 524.748C339.823 524.748 338.828 523.753 338.828 522.526C338.828 521.298 339.823 520.303 341.05 520.303Z" fill="#00D7B0"/>
<path d="M383.833 581.977C385.061 581.977 386.056 582.972 386.056 584.2C386.056 585.427 385.061 586.422 383.833 586.422C382.606 586.422 381.611 585.427 381.611 584.2C381.611 582.972 382.606 581.977 383.833 581.977Z" fill="#00D7B0"/>
<path d="M442.73 492.522C443.957 492.522 444.952 493.517 444.952 494.744C444.952 495.971 443.957 496.967 442.73 496.967C441.502 496.967 440.507 495.971 440.507 494.744C440.507 493.517 441.502 492.522 442.73 492.522Z" fill="#00D7B0"/>
<path d="M485.513 562.531C486.74 562.531 487.735 563.526 487.735 564.753C487.735 565.981 486.74 566.976 485.513 566.976C484.285 566.976 483.29 565.981 483.29 564.753C483.29 563.526 484.285 562.531 485.513 562.531Z" fill="#00D7B0"/>
<path d="M548.299 475.297C549.526 475.297 550.521 476.292 550.521 477.519C550.521 478.746 549.526 479.742 548.299 479.742C547.071 479.742 546.076 478.746 546.076 477.519C546.076 476.292 547.071 475.297 548.299 475.297Z" fill="#00D7B0"/>
<path d="M468.844 437.515C470.071 437.515 471.067 438.51 471.067 439.737C471.067 440.965 470.071 441.96 468.844 441.96C467.617 441.96 466.622 440.965 466.622 439.737C466.622 438.51 467.617 437.515 468.844 437.515Z" fill="#00D7B0"/>
<path d="M404.392 429.735C405.619 429.735 406.614 430.73 406.614 431.958C406.614 433.185 405.619 434.18 404.392 434.18C403.164 434.18 402.169 433.185 402.169 431.958C402.169 430.73 403.164 429.735 404.392 429.735Z" fill="#00D7B0"/>
<path d="M381.055 267.464C382.283 267.464 383.278 268.459 383.278 269.687C383.278 270.914 382.283 271.909 381.055 271.909C379.828 271.909 378.833 270.914 378.833 269.687C378.833 268.459 379.828 267.464 381.055 267.464Z" fill="#00D7B0"/>
<path d="M417.171 331.389C418.398 331.389 419.394 332.384 419.394 333.612C419.394 334.839 418.398 335.834 417.171 335.834C415.944 335.834 414.948 334.839 414.948 333.612C414.948 332.384 415.944 331.389 417.171 331.389Z" fill="#00D7B0"/>
<path d="M460.51 331.389C461.737 331.389 462.732 332.384 462.732 333.612C462.732 334.839 461.737 335.834 460.51 335.834C459.282 335.834 458.287 334.839 458.287 333.612C458.287 332.384 459.282 331.389 460.51 331.389Z" fill="#00D7B0"/>
<path d="M536.631 296.385C537.858 296.385 538.853 297.38 538.853 298.607C538.853 299.835 537.858 300.83 536.631 300.83C535.403 300.83 534.408 299.835 534.408 298.607C534.408 297.38 535.403 296.385 536.631 296.385Z" fill="#00D7B0"/>
<path d="M399.391 892.015C400.618 892.015 401.613 893.01 401.613 894.238C401.613 895.465 400.618 896.46 399.391 896.46C398.163 896.46 397.168 895.465 397.168 894.238C397.168 893.01 398.163 892.015 399.391 892.015Z" fill="#00D7B0"/>
<path d="M368.832 698.658C370.059 698.658 371.054 699.653 371.054 700.881C371.054 702.108 370.059 703.103 368.832 703.103C367.604 703.103 366.609 702.108 366.609 700.881C366.609 699.653 367.604 698.658 368.832 698.658Z" fill="#00D7B0"/>
<path d="M343.273 832.007C344.5 832.007 345.495 833.002 345.495 834.23C345.495 835.457 344.5 836.452 343.273 836.452C342.046 836.452 341.05 835.457 341.05 834.23C341.05 833.002 342.046 832.007 343.273 832.007Z" fill="#00D7B0"/>
<path d="M511.627 945.91C512.855 945.91 513.85 946.905 513.85 948.133C513.85 949.36 512.855 950.355 511.627 950.355C510.4 950.355 509.405 949.36 509.405 948.133C509.405 946.905 510.4 945.91 511.627 945.91Z" fill="#00D7B0"/>
<path d="M478.845 1074.82C480.073 1074.82 481.068 1075.81 481.068 1077.04C481.068 1078.27 480.073 1079.26 478.845 1079.26C477.618 1079.26 476.623 1078.27 476.623 1077.04C476.623 1075.81 477.618 1074.82 478.845 1074.82Z" fill="#00D7B0"/>
<path d="M543.298 1032.03C544.526 1032.03 545.521 1033.03 545.521 1034.26C545.521 1035.48 544.526 1036.48 543.298 1036.48C542.071 1036.48 541.076 1035.48 541.076 1034.26C541.076 1033.03 542.071 1032.03 543.298 1032.03Z" fill="#00D7B0"/>
<path d="M517.184 1393.19C518.411 1393.19 519.406 1394.19 519.406 1395.41C519.406 1396.64 518.411 1397.64 517.184 1397.64C515.956 1397.64 514.961 1396.64 514.961 1395.41C514.961 1394.19 515.956 1393.19 517.184 1393.19Z" fill="#00D7B0"/>
<path d="M442.653 254.097C443.88 254.097 444.875 255.092 444.875 256.32C444.875 257.547 443.88 258.542 442.653 258.542C441.426 258.542 440.431 257.547 440.431 256.32C440.431 255.092 441.426 254.097 442.653 254.097Z" fill="#00D7B0"/>
<path d="M504.528 253.603C505.755 253.603 506.75 254.598 506.75 255.825C506.75 257.053 505.755 258.048 504.528 258.048C503.3 258.048 502.305 257.053 502.305 255.825C502.305 254.598 503.3 253.603 504.528 253.603Z" fill="#00D7B0"/>
<path d="M479.778 157.081C481.005 157.081 482 158.076 482 159.303C482 160.531 481.005 161.526 479.778 161.526C478.55 161.526 477.555 160.531 477.555 159.303C477.555 158.076 478.55 157.081 479.778 157.081Z" fill="#00D7B0"/>
<path d="M475.313 84.3157C476.54 84.3157 477.535 85.3107 477.535 86.5382C477.535 87.7656 476.54 88.7607 475.313 88.7607C474.085 88.7607 473.09 87.7656 473.09 86.5382C473.09 85.3107 474.085 84.3157 475.313 84.3157Z" fill="#00D7B0"/>
<path d="M378.051 88.5183C379.278 88.5183 380.273 89.5134 380.273 90.7408C380.273 91.9683 379.278 92.9633 378.051 92.9633C376.823 92.9633 375.828 91.9683 375.828 90.7408C375.828 89.5134 376.823 88.5183 378.051 88.5183Z" fill="#00D7B0"/>
<path d="M357.756 161.521C358.983 161.521 359.978 162.516 359.978 163.743C359.978 164.971 358.983 165.966 357.756 165.966C356.528 165.966 355.533 164.971 355.533 163.743C355.533 162.516 356.528 161.521 357.756 161.521Z" fill="#00D7B0"/>
<path d="M241.431 607.771C242.658 607.771 243.654 608.766 243.654 609.994C243.654 611.221 242.658 612.216 241.431 612.216C240.204 612.216 239.209 611.221 239.209 609.994C239.209 608.766 240.204 607.771 241.431 607.771Z" fill="#00D7B0"/>
<path d="M163.377 624.76C164.604 624.76 165.6 625.755 165.6 626.982C165.6 628.21 164.604 629.205 163.377 629.205C162.15 629.205 161.155 628.21 161.155 626.982C161.155 625.755 162.15 624.76 163.377 624.76Z" fill="#00D7B0"/>
<path d="M319.146 694.213C320.373 694.213 321.368 695.208 321.368 696.436C321.368 697.663 320.373 698.658 319.146 698.658C317.918 698.658 316.923 697.663 316.923 696.436C316.923 695.208 317.918 694.213 319.146 694.213Z" fill="#00D7B0"/>
<path d="M314.701 876.313C315.928 876.313 316.923 877.308 316.923 878.536C316.923 879.763 315.928 880.758 314.701 880.758C313.473 880.758 312.478 879.763 312.478 878.536C312.478 877.308 313.473 876.313 314.701 876.313Z" fill="#00D7B0"/>
<path d="M473.585 896.46C474.813 896.46 475.808 897.455 475.808 898.683C475.808 899.91 474.813 900.905 473.585 900.905C472.358 900.905 471.363 899.91 471.363 898.683C471.363 897.455 472.358 896.46 473.585 896.46Z" fill="#00D7B0"/>
<path d="M502.79 903.79C504.018 903.79 505.013 904.785 505.013 906.013C505.013 907.24 504.018 908.235 502.79 908.235C501.563 908.235 500.568 907.24 500.568 906.013C500.568 904.785 501.563 903.79 502.79 903.79Z" fill="#00D7B0"/>
<path d="M488.435 1169.1C489.663 1169.1 490.658 1170.09 490.658 1171.32C490.658 1172.55 489.663 1173.54 488.435 1173.54C487.208 1173.54 486.213 1172.55 486.213 1171.32C486.213 1170.09 487.208 1169.1 488.435 1169.1Z" fill="#00D7B0"/>
<path d="M304.791 1210.19C306.018 1210.19 307.013 1211.19 307.013 1212.42C307.013 1213.64 306.018 1214.64 304.791 1214.64C303.563 1214.64 302.568 1213.64 302.568 1212.42C302.568 1211.19 303.563 1210.19 304.791 1210.19Z" fill="#00D7B0"/>
<path d="M456.065 1221.82C457.292 1221.82 458.287 1222.82 458.287 1224.04C458.287 1225.27 457.292 1226.27 456.065 1226.27C454.837 1226.27 453.842 1225.27 453.842 1224.04C453.842 1222.82 454.837 1221.82 456.065 1221.82Z" fill="#00D7B0"/>
<path d="M497.345 1361.65C498.573 1361.65 499.568 1362.65 499.568 1363.88C499.568 1365.1 498.573 1366.1 497.345 1366.1C496.118 1366.1 495.123 1365.1 495.123 1363.88C495.123 1362.65 496.118 1361.65 497.345 1361.65Z" fill="#00D7B0"/>
<path d="M472.057 1320.43C473.284 1320.43 474.279 1321.43 474.279 1322.66C474.279 1323.88 473.284 1324.88 472.057 1324.88C470.829 1324.88 469.834 1323.88 469.834 1322.66C469.834 1321.43 470.829 1320.43 472.057 1320.43Z" fill="#00D7B0"/>
<path d="M473.047 1403.49C474.274 1403.49 475.269 1404.48 475.269 1405.71C475.269 1406.94 474.274 1407.93 473.047 1407.93C471.819 1407.93 470.824 1406.94 470.824 1405.71C470.824 1404.48 471.819 1403.49 473.047 1403.49Z" fill="#00D7B0"/>
<path d="M400.578 1833.64C401.805 1833.64 402.8 1834.63 402.8 1835.86C402.8 1837.09 401.805 1838.08 400.578 1838.08C399.351 1838.08 398.355 1837.09 398.355 1835.86C398.355 1834.63 399.351 1833.64 400.578 1833.64Z" fill="#00D7B0"/>
<path d="M326.813 1881.65C328.041 1881.65 329.036 1882.65 329.036 1883.88C329.036 1885.1 328.041 1886.1 326.813 1886.1C325.586 1886.1 324.591 1885.1 324.591 1883.88C324.591 1882.65 325.586 1881.65 326.813 1881.65Z" fill="#00D7B0"/>
<path d="M354.038 1947.49C355.266 1947.49 356.261 1948.48 356.261 1949.71C356.261 1950.94 355.266 1951.93 354.038 1951.93C352.811 1951.93 351.816 1950.94 351.816 1949.71C351.816 1948.48 352.811 1947.49 354.038 1947.49Z" fill="#00D7B0"/>
<path d="M427.803 1954.42C429.03 1954.42 430.025 1955.41 430.025 1956.64C430.025 1957.87 429.03 1958.86 427.803 1958.86C426.575 1958.86 425.58 1957.87 425.58 1956.64C425.58 1955.41 426.575 1954.42 427.803 1954.42Z" fill="#00D7B0"/>
<path d="M501.305 1871.01C502.533 1871.01 503.528 1872 503.528 1873.23C503.528 1874.46 502.533 1875.45 501.305 1875.45C500.078 1875.45 499.083 1874.46 499.083 1873.23C499.083 1872 500.078 1871.01 501.305 1871.01Z" fill="#00D7B0"/>
<path d="M217.182 30.5565C218.41 30.5565 219.405 31.5515 219.405 32.779C219.405 34.0065 218.41 35.0015 217.182 35.0015C215.955 35.0015 214.96 34.0065 214.96 32.779C214.96 31.5515 215.955 30.5565 217.182 30.5565Z" fill="#00D7B0"/>
<path d="M368.76 0C369.987 1.46373e-08 370.983 0.995046 370.983 2.2225C370.983 3.44995 369.987 4.445 368.76 4.445C367.533 4.445 366.538 3.44995 366.538 2.2225C366.538 0.995046 367.533 -1.46373e-08 368.76 0Z" fill="#00D7B0"/>
<path d="M536.427 16.3558C537.655 16.3558 538.65 17.3509 538.65 18.5783C538.65 19.8058 537.655 20.8008 536.427 20.8008C535.2 20.8008 534.205 19.8058 534.205 18.5783C534.205 17.3509 535.2 16.3558 536.427 16.3558Z" fill="#00D7B0"/>
<path d="M559.75 67.4452C560.977 67.4452 561.972 68.4402 561.972 69.6676C561.972 70.8951 560.977 71.8902 559.75 71.8902C558.522 71.8902 557.527 70.8951 557.527 69.6676C557.527 68.4402 558.522 67.4452 559.75 67.4452Z" fill="#00D7B0"/>
<path d="M545.551 253.603C546.778 253.603 547.773 254.598 547.773 255.825C547.773 257.053 546.778 258.048 545.551 258.048C544.323 258.048 543.328 257.053 543.328 255.825C543.328 254.598 544.323 253.603 545.551 253.603Z" fill="#00D7B0"/>
<path d="M555.636 660.883C556.864 660.883 557.859 661.878 557.859 663.106C557.859 664.333 556.864 665.328 555.636 665.328C554.409 665.328 553.414 664.333 553.414 663.106C553.414 661.878 554.409 660.883 555.636 660.883Z" fill="#00D7B0"/>
<path d="M521.001 839.896C522.228 839.896 523.223 840.891 523.223 842.119C523.223 843.346 522.228 844.341 521.001 844.341C519.773 844.341 518.778 843.346 518.778 842.119C518.778 840.891 519.773 839.896 521.001 839.896Z" fill="#00D7B0"/>
<path d="M543.062 1250.24C544.29 1250.24 545.285 1251.24 545.285 1252.46C545.285 1253.69 544.29 1254.69 543.062 1254.69C541.835 1254.69 540.84 1253.69 540.84 1252.46C540.84 1251.24 541.835 1250.24 543.062 1250.24Z" fill="#00D7B0"/>
<path d="M550.295 1719.54C551.522 1719.54 552.517 1720.53 552.517 1721.76C552.517 1722.99 551.522 1723.98 550.295 1723.98C549.067 1723.98 548.072 1722.99 548.072 1721.76C548.072 1720.53 549.067 1719.54 550.295 1719.54Z" fill="#00D7B0"/>
<path d="M544.953 1796.26C546.181 1796.26 547.176 1797.26 547.176 1798.48C547.176 1799.71 546.181 1800.71 544.953 1800.71C543.726 1800.71 542.731 1799.71 542.731 1798.48C542.731 1797.26 543.726 1796.26 544.953 1796.26Z" fill="#00D7B0"/>
<path d="M566.384 1947.49C567.612 1947.49 568.607 1948.48 568.607 1949.71C568.607 1950.94 567.612 1951.93 566.384 1951.93C565.157 1951.93 564.162 1950.94 564.162 1949.71C564.162 1948.48 565.157 1947.49 566.384 1947.49Z" fill="#00D7B0"/>
<path d="M526.973 2060.54C528.2 2060.54 529.195 2061.54 529.195 2062.77C529.195 2063.99 528.2 2064.99 526.973 2064.99C525.745 2064.99 524.75 2063.99 524.75 2062.77C524.75 2061.54 525.745 2060.54 526.973 2060.54Z" fill="#00D7B0"/>
<path d="M322.368 2050.13C323.596 2050.13 324.591 2051.12 324.591 2052.35C324.591 2053.58 323.596 2054.57 322.368 2054.57C321.141 2054.57 320.146 2053.58 320.146 2052.35C320.146 2051.12 321.141 2050.13 322.368 2050.13Z" fill="#00D7B0"/>
<path d="M210.879 2025.54C212.107 2025.54 213.102 2026.54 213.102 2027.77C213.102 2028.99 212.107 2029.99 210.879 2029.99C209.652 2029.99 208.657 2028.99 208.657 2027.77C208.657 2026.54 209.652 2025.54 210.879 2025.54Z" fill="#00D7B0"/>
<path d="M147.984 2100.01C149.212 2100.01 150.207 2101.01 150.207 2102.24C150.207 2103.46 149.212 2104.46 147.984 2104.46C146.757 2104.46 145.762 2103.46 145.762 2102.24C145.762 2101.01 146.757 2100.01 147.984 2100.01Z" fill="#00D7B0"/>
<path d="M2.22248 2124.26C3.44994 2124.26 4.445 2125.25 4.445 2126.48C4.445 2127.71 3.44994 2128.7 2.22248 2128.7C0.995029 2128.7 -1.46372e-08 2127.71 0 2126.48C1.46372e-08 2125.25 0.995029 2124.26 2.22248 2124.26Z" fill="#00D7B0"/>
<path d="M126.93 2141.52C128.157 2141.52 129.152 2142.52 129.152 2143.74C129.152 2144.97 128.157 2145.97 126.93 2145.97C125.702 2145.97 124.707 2144.97 124.707 2143.74C124.707 2142.52 125.702 2141.52 126.93 2141.52Z" fill="#00D7B0"/>
<path d="M382.226 2134.3C383.453 2134.3 384.448 2135.3 384.448 2136.52C384.448 2137.75 383.453 2138.75 382.226 2138.75C380.999 2138.75 380.004 2137.75 380.004 2136.52C380.004 2135.3 380.999 2134.3 382.226 2134.3Z" fill="#00D7B0"/>
<path d="M554.456 2124.26C555.684 2124.26 556.679 2125.25 556.679 2126.48C556.679 2127.71 555.684 2128.7 554.456 2128.7C553.229 2128.7 552.234 2127.71 552.234 2126.48C552.234 2125.25 553.229 2124.26 554.456 2124.26Z" fill="#00D7B0"/>
<path d="M472.069 1517.24C473.296 1517.24 474.291 1518.24 474.291 1519.47C474.291 1520.69 473.296 1521.69 472.069 1521.69C470.841 1521.69 469.846 1520.69 469.846 1519.47C469.846 1518.24 470.841 1517.24 472.069 1517.24Z" fill="#00D7B0"/>
</svg>
