<svg width="31" height="20" viewBox="0 0 31 20" fill="none" xmlns="http://www.w3.org/2000/svg">
<path d="M27.5469 1.53125C27.1719 3.125 23.7969 7.90625 23.7969 7.90625C23.5156 8.375 23.375 8.60938 23.7969 9.125C23.9844 9.35938 27.5 12.7344 28.0156 14.3281C28.25 15.125 27.875 15.5 27.0781 15.5H24.3125C23.2812 15.5 22.9531 14.7031 21.0781 12.8281C19.4375 11.2344 18.7344 11 18.3125 11C17.4688 11 17.6094 11.3281 17.6094 14.4688C17.6094 15.125 17.375 15.5 15.6406 15.5C12.7344 15.5 9.5 13.7656 7.20312 10.4844C3.78125 5.65625 2.84375 2.04688 2.84375 1.29688C2.84375 0.875 3.03125 0.5 3.78125 0.5H6.54688C7.25 0.5 7.53125 0.828125 7.8125 1.57812C9.17188 5.51562 11.4219 8.98438 12.3594 8.98438C12.7344 8.98438 12.875 8.79688 12.875 7.90625V3.82812C12.7812 1.95312 11.7969 1.8125 11.7969 1.15625C11.7969 0.828125 12.0312 0.5 12.5 0.5H16.8125C17.4219 0.5 17.6094 0.828125 17.6094 1.53125V7.01562C17.6094 7.57812 17.8906 7.8125 18.0312 7.8125C18.4062 7.8125 18.6875 7.57812 19.3438 6.96875C21.3125 4.71875 22.7188 1.29688 22.7188 1.29688C22.9062 0.875 23.2344 0.5 23.9375 0.5H26.7031C27.5469 0.5 27.6875 0.96875 27.5469 1.53125Z" fill="#F2F2F2"/>
</svg>
