<svg width="26" height="25" viewBox="0 0 26 25" fill="none" xmlns="http://www.w3.org/2000/svg">
<path d="M24.4321 6.39062C25.0415 8.82812 24.3384 11.3125 22.5571 13.0938C20.7759 14.875 18.1978 15.5781 15.7603 14.9219L6.71338 23.9688C6.05713 24.6719 5.1665 25 4.18213 25C3.24463 25 2.354 24.6719 1.69775 23.9688C0.291504 22.6094 0.291504 20.3125 1.69775 18.9531L10.7446 9.85938C10.0884 7.42188 10.7915 4.89062 12.5728 3.10938C14.3071 1.32812 16.8384 0.625 19.2759 1.23438C19.6978 1.32812 20.0728 1.70312 20.2134 2.125C20.3071 2.59375 20.2134 3.0625 19.8853 3.39062L16.8853 6.39062L17.2134 8.45312L19.2759 8.78125L22.2759 5.78125C22.604 5.45312 23.0728 5.35938 23.5415 5.45312C23.9634 5.59375 24.3384 5.96875 24.4321 6.39062ZM21.5259 12.0625C22.7915 10.75 23.354 8.92188 23.0728 7.14062L19.7915 10.375L15.9009 9.76562L15.2446 5.875L18.5259 2.59375C18.1978 2.54688 17.8696 2.5 17.5415 2.5C16.0884 2.5 14.6821 3.10938 13.604 4.14062C12.1509 5.64062 11.6353 7.84375 12.2915 9.85938L12.4321 10.2812L2.729 19.9844C1.93213 20.8281 1.93213 22.0938 2.729 22.9375C3.52588 23.6875 4.88525 23.6875 5.68213 22.9375L15.3384 13.2344L15.8071 13.375C17.8228 14.0312 20.0259 13.5156 21.5259 12.0625ZM4.4165 20.5C4.7915 20.5 5.1665 20.875 5.1665 21.25C5.1665 21.6719 4.7915 22 4.4165 22C3.99463 22 3.6665 21.6719 3.6665 21.25C3.6665 20.875 3.99463 20.5 4.4165 20.5Z" fill="#00A894"/>
</svg>
