<svg width="91" height="92" viewBox="0 0 91 92" fill="none" xmlns="http://www.w3.org/2000/svg">
<path d="M88.4741 20.9062C90.5366 28.9844 88.3022 37.9219 81.9429 44.2812C75.0679 51.1562 65.271 53.0469 56.6772 50.2969L20.0679 86.9062C15.771 91.2031 8.72412 91.2031 4.42725 86.9062C0.130371 82.6094 0.130371 75.5625 4.42725 71.2656L41.2085 34.6562C38.2866 26.0625 40.1772 16.0938 47.0522 9.39062C53.4116 3.03125 62.3491 0.796875 70.4272 2.85938C71.9741 3.20312 72.6616 5.09375 71.4585 6.29688L58.7397 19.0156L60.6304 30.7031L72.3179 32.5938L85.0366 19.875C86.2397 18.8438 88.1304 19.3594 88.4741 20.9062ZM12.3335 83.125C14.5679 83.125 16.4585 81.4062 16.4585 79C16.4585 76.7656 14.5679 74.875 12.3335 74.875C9.92725 74.875 8.2085 76.7656 8.2085 79C8.2085 81.4062 9.92725 83.125 12.3335 83.125Z" fill="url(#paint0_linear_2913_20)" fill-opacity="0.05"/>
<defs>
<linearGradient id="paint0_linear_2913_20" x1="110.667" y1="-19" x2="-19.3335" y2="99" gradientUnits="userSpaceOnUse">
<stop stop-color="#00A894"/>
<stop offset="1" stop-color="#00423A"/>
</linearGradient>
</defs>
</svg>
