<svg width="27" height="22" viewBox="0 0 27 22" fill="none" xmlns="http://www.w3.org/2000/svg">
<path d="M19.2656 7.15625C19.5469 6.875 20.0156 6.82812 20.3438 7.0625C20.625 7.34375 20.6719 7.8125 20.4375 8.14062L15.8906 13.7656C16.2656 14.2344 16.5 14.8438 16.5 15.5C16.5 17.1875 15.1406 18.5 13.5 18.5C11.8125 18.5 10.5 17.1875 10.5 15.5C10.5 13.8594 11.8125 12.5 13.5 12.5C13.9219 12.5 14.3438 12.6406 14.7188 12.7812L19.2656 7.15625ZM13.5 17C14.2969 17 15 16.3438 15 15.5C15 14.7031 14.2969 14 13.5 14C12.6562 14 12 14.7031 12 15.5C12 16.3438 12.6562 17 13.5 17ZM13.5 0.5C20.9531 0.5 27 6.54688 27 14C27 16.4844 26.2969 18.8281 25.125 20.7969C24.8906 21.2656 24.375 21.5 23.8594 21.5H3.09375C2.57812 21.5 2.0625 21.2656 1.82812 20.7969C0.65625 18.8281 0 16.4844 0 14C0 6.54688 6 0.5 13.5 0.5ZM23.8594 20C24.9375 18.2188 25.5 16.1562 25.5 14C25.5 7.39062 20.1094 2 13.5 2C6.84375 2 1.5 7.39062 1.5 14C1.5 16.1562 2.0625 18.2188 3.09375 20.0469L23.8594 20Z" fill="#00A894"/>
</svg>
