<svg width="22" height="24" viewBox="0 0 22 24" fill="none" xmlns="http://www.w3.org/2000/svg">
<path d="M11.1665 1.5C6.19775 1.5 2.1665 2.85938 2.1665 4.5V6C2.1665 7.6875 6.19775 9 11.1665 9C16.1353 9 20.1665 7.6875 20.1665 6V4.5C20.1665 2.85938 16.1353 1.5 11.1665 1.5ZM20.1665 8.53125C18.1978 9.89062 14.6821 10.5 11.1665 10.5C7.604 10.5 4.08838 9.89062 2.1665 8.53125V10.5C2.1665 12.1875 6.19775 13.5 11.1665 13.5C16.1353 13.5 20.1665 12.1875 20.1665 10.5V8.53125ZM20.1665 13.0312C18.1978 14.3906 14.6821 15 11.1665 15C7.604 15 4.08838 14.3906 2.1665 13.0312V15C2.1665 16.6875 6.19775 18 11.1665 18C16.1353 18 20.1665 16.6875 20.1665 15V13.0312ZM20.1665 17.5312C18.1978 18.8906 14.6821 19.5 11.1665 19.5C7.604 19.5 4.08838 18.8906 2.1665 17.5312V19.5C2.1665 21.1875 6.19775 22.5 11.1665 22.5C16.1353 22.5 20.1665 21.1875 20.1665 19.5V17.5312ZM11.1665 0C14.7759 0 21.6665 0.890625 21.6665 4.5V19.5C21.6665 23.1562 14.8228 24 11.1665 24C7.51025 24 0.666504 23.1562 0.666504 19.5V4.5C0.666504 0.890625 7.46338 0 11.1665 0Z" fill="#00A894"/>
</svg>
