<svg width="22" height="24" viewBox="0 0 22 24" fill="none" xmlns="http://www.w3.org/2000/svg">
<path d="M4.0835 21C3.66162 21 3.3335 20.6719 3.3335 20.25V11.25C3.3335 10.875 3.66162 10.5 4.0835 10.5H17.5835C17.9585 10.5 18.3335 10.875 18.3335 11.25V20.25C18.3335 20.6719 17.9585 21 17.5835 21H4.0835ZM13.8335 16.5V19.5H16.8335V12H13.8335V16.5ZM9.3335 12V15H12.3335V12H9.3335ZM9.3335 16.5V19.5H12.3335V16.5H9.3335ZM4.8335 12V15H7.8335V12H4.8335ZM4.8335 16.5V19.5H7.8335V16.5H4.8335ZM19.0835 0C20.2554 0 21.3335 1.07812 21.3335 2.25V21.75C21.3335 22.9688 20.2554 24 19.0835 24H2.5835C1.36475 24 0.333496 22.9688 0.333496 21.75V2.25C0.333496 1.07812 1.36475 0 2.5835 0H19.0835ZM19.8335 21.75V9H1.8335V21.75C1.8335 22.125 2.2085 22.5 2.5835 22.5H19.0835C19.4116 22.5 19.8335 22.125 19.8335 21.75ZM19.8335 7.5V2.25C19.8335 1.92188 19.4116 1.5 19.0835 1.5H2.5835C2.2085 1.5 1.8335 1.92188 1.8335 2.25V7.5H19.8335Z" fill="#00A894"/>
</svg>
