<svg width="1920" height="440" viewBox="0 0 1920 440" fill="none" xmlns="http://www.w3.org/2000/svg">
<path d="M302.183 405.955L394.374 384.467M302.183 405.955L394.374 424.117M302.183 405.955L233.358 461.937M302.183 405.955L267.543 369.411M394.374 384.467L520.9 424.885M394.374 384.467L484.679 372.593M394.374 384.467L362.4 349.165M394.374 384.467L267.543 369.411M732.91 339.956L887.986 404.164M732.91 339.956L643.944 383.188M732.91 339.956L740.422 435.424M732.91 339.956L885.003 316.421M732.91 339.956L625.538 354.073M732.91 339.956L567.855 314.375M732.91 339.956L766.477 419.513M732.91 339.956L841.387 280.987M887.986 404.164L830.448 419.513M887.986 404.164L966.264 441.364L879.598 449.947M887.986 404.164L868.584 432.047M887.986 404.164L885.003 316.421M394.374 424.117L520.9 424.885M394.374 424.117L510.604 494.464M394.374 424.117L372.831 507.061M520.9 424.885L558.916 434.917M520.9 424.885L610.847 370.909M520.9 424.885L510.604 494.464M558.916 434.917L610.847 458.776M558.916 434.917L510.604 494.464M558.916 434.917L610.847 370.909M610.847 458.776L663.627 435.424M610.847 458.776L610.847 370.909M610.847 458.776L673.067 476.558M610.847 458.776L510.604 494.464M663.627 435.424L702.184 458.776M663.627 435.424L673.067 476.558M663.627 435.424L643.944 383.188M702.184 458.776L742.632 463.512M702.184 458.776L673.067 476.558M702.184 458.776L740.422 435.424M742.632 463.512L830.448 419.513M742.632 463.512L740.422 435.424M742.632 463.512L879.598 449.947M742.632 463.512L901.638 485.767M742.632 463.512L805.5 500.604M742.632 463.512L766.477 419.513M830.448 419.513L766.477 419.513M830.448 419.513L868.584 432.047M830.448 419.513L879.598 449.947M610.847 370.909L643.944 383.188M610.847 370.909L484.679 372.593M610.847 370.909L625.538 354.073M510.604 494.464L673.067 476.558M510.604 494.464L372.831 507.061M510.604 494.464L805.5 500.604M673.067 476.558L805.5 500.604M740.422 435.424L766.477 419.513M868.584 432.047L879.598 449.947M879.598 449.947L901.638 485.767M885.003 316.421L1012.82 409.536L901.638 485.767M885.003 316.421L841.387 280.987M901.638 485.767L805.5 500.604M901.638 485.767L1005.34 500.604M484.679 372.593L362.4 349.165M484.679 372.593L625.538 354.073M362.4 349.165L267.543 369.411M362.4 349.165L625.538 354.073M362.4 349.165L567.855 314.375M362.4 349.165L223.331 301.042M267.543 369.411L223.331 301.042M267.543 369.411L156.329 394.48M233.358 461.937L372.831 507.061M233.358 461.937L302.183 502.394M233.358 461.937L58.3335 485.638M233.358 461.937L156.329 394.48M233.358 461.937L162.71 522.102M372.831 507.061L302.183 502.394M625.538 354.073L567.855 314.375M805.5 500.604L1005.24 500.604M223.331 301.042L162.71 326.567M302.183 502.394L162.71 522.102M1722.44 408.001L1650.72 384.467M1722.44 408.001L1650.72 424.117M1722.44 408.001L1709.92 351.636M1722.44 408.001L1812.68 442.338M1722.44 408.001L1722.44 465.046M1650.72 384.467L1553.51 432.047M1650.72 384.467L1560.42 372.593M1650.72 384.467L1709.92 351.636M1650.72 384.467L1650.72 424.117M1312.21 339.956L1227.44 373.513M1312.21 339.956L1380.42 384.467M1312.21 339.956L1304.23 441.375M1312.21 339.956L1419.57 354.073M1312.21 339.956L1477.25 314.375M1312.21 339.956L1189.72 316.421M1312.21 339.956L1338.72 459.269M1312.21 339.956L1396.54 222.646M1312.21 339.956L1316.78 293.75M1227.44 373.513L1134.84 368.095M1227.44 373.513L1189.72 316.421M1227.44 373.513L1258.14 417.466M1134.84 368.095L1176.55 432.047M1134.84 368.095L1076.53 442.408M1134.84 368.095L1054.06 346.863M1650.72 424.117L1553.51 432.047M1650.72 424.117L1518.51 505.208M1650.72 424.117L1682.69 494.464M1553.51 432.047L1507.62 438.243M1553.51 432.047L1502.7 408.001M1553.51 432.047L1518.51 505.208M1553.51 432.047L1560.42 372.593M1507.62 438.243L1437.93 447.652M1507.62 438.243L1518.51 505.208M1507.62 438.243L1502.7 408.001M1437.93 447.652L1373.99 455.139M1437.93 447.652L1502.7 408.001M1437.93 447.652L1518.51 505.208M1437.93 447.652L1380.42 384.467M1437.93 447.652L1347.32 512.53M1373.99 455.139L1338.72 459.269M1373.99 455.139L1347.32 512.53M1373.99 455.139L1380.42 384.467M1338.72 459.269L1302.49 463.512M1338.72 459.269L1347.32 512.53M1338.72 459.269L1304.23 441.375M1302.49 463.512L1304.23 441.375M1302.49 463.512L1130.36 435.957M1302.49 463.512L1182.67 480.283M1302.49 463.512L1239.63 500.604M1302.49 463.512L1176.55 432.047M1502.7 408.001L1380.42 384.467M1502.7 408.001L1560.42 372.593M1502.7 408.001L1419.57 354.073M1380.42 384.467L1419.57 354.073M1518.51 505.208L1347.32 512.53M1518.51 505.208L1682.69 494.464M1347.32 512.53L1239.63 500.604M1304.23 441.375L1258.14 417.466M1258.14 417.466L1176.55 432.047M1176.55 432.047L1130.36 435.957M1130.36 435.957L1076.53 442.408M1130.36 435.957L1123.07 463.512M1076.53 442.408L1123.07 463.512M1076.53 442.408L1085.6 471.421M1076.53 442.408L1054.06 346.863M1076.53 442.408L1012.57 409.536L1054.06 346.863M1182.67 480.283L1143.5 485.767M1182.67 480.283L1123.07 463.512M1182.67 480.283L1239.63 500.604M1143.5 485.767L1239.63 500.604M1143.5 485.767L1123.07 463.512M1143.5 485.767L1085.6 471.421M1143.5 485.767L1005.24 500.604M1560.42 372.593L1709.92 351.636M1560.42 372.593L1419.57 354.073M1709.92 351.636L1812.68 442.338M1709.92 351.636L1419.57 354.073M1709.92 351.636L1477.25 314.375M1709.92 351.636L1878.32 438.243M1709.92 351.636L1806.76 329.757M1709.92 351.636L1396.54 222.646M1812.68 442.338L1722.44 465.046M1812.68 442.338L1722.44 502.65M1812.68 442.338L1878.32 438.243M1722.44 465.046L1682.69 494.464M1682.69 494.464L1722.44 502.65M1419.57 354.073L1477.25 314.375M1477.25 314.375L1396.54 222.646M1239.63 500.604L1005.24 500.604M1878.32 438.243L1722.44 502.65M1878.32 438.243L1894.27 515.721M1878.32 438.243L1956.26 339.956M1878.32 438.243L1806.76 329.757M1878.32 438.243L1873.99 348.445M1722.44 502.65L1894.27 515.721M1085.6 471.421L1005.24 500.604M1085.6 471.421L966.52 441.256M1085.6 471.421L901.55 485.767M1054.06 346.863L1189.72 316.421M1054.06 346.863L884.917 316.421M1054.06 346.863L1149.5 289.647L1189.72 316.421M1054.06 346.863L841.387 280.987M1189.72 316.421L1316.78 293.75M1894.27 515.721L1941.22 494.464L1956.26 339.956M1396.54 222.646L1316.78 293.75M1956.26 339.956L1873.99 348.445M1956.26 339.956L1927.54 200.768M1806.76 329.757L1873.99 348.445M1806.76 329.757L1927.54 200.768M58.3335 485.638L156.329 394.48M58.3335 485.638L162.71 522.102M58.3335 485.638L67.9053 296.484M58.3335 485.638L-9.08276 352.094M58.3335 485.638L-0.380121 511.031M156.329 394.48L67.9053 296.484M156.329 394.48L91.1508 195.298M156.329 394.48L162.71 326.567M67.9053 296.484L91.1508 195.298M67.9053 296.484L-15.9534 117.123M67.9053 296.484L-9.08276 352.094M91.1508 195.298L162.71 326.567M91.1508 195.298L22.5215 136.818M162.71 522.102L-0.380121 511.031M1873.99 348.445L1927.54 200.768M22.5215 136.818L-15.9534 117.123M22.5215 136.818L-0.380127 2.15627L-15.9534 117.123M-15.9534 117.123L-9.08276 352.094M-9.08276 352.094L-0.380121 511.031" stroke="#00D7B0" stroke-opacity="0.15"/>
<path d="M365.194 349.164C365.194 350.295 364.278 351.211 363.148 351.211C362.018 351.211 361.101 350.295 361.101 349.164C361.101 348.034 362.018 347.118 363.148 347.118C364.278 347.118 365.194 348.034 365.194 349.164Z" fill="#00D7B0"/>
<path d="M396.636 384.466C396.636 385.596 395.72 386.512 394.59 386.512C393.46 386.512 392.543 385.596 392.543 384.466C392.543 383.336 393.46 382.42 394.59 382.42C395.72 382.42 396.636 383.336 396.636 384.466Z" fill="#00D7B0"/>
<path d="M396.636 424.372C396.636 425.502 395.72 426.419 394.59 426.419C393.46 426.419 392.543 425.502 392.543 424.372C392.543 423.242 393.46 422.326 394.59 422.326C395.72 422.326 396.636 423.242 396.636 424.372Z" fill="#00D7B0"/>
<path d="M304.007 405.874C304.007 407.004 303.091 407.92 301.961 407.92C300.83 407.92 299.914 407.004 299.914 405.874C299.914 404.744 300.83 403.828 301.961 403.828C303.091 403.828 304.007 404.744 304.007 405.874Z" fill="#00D7B0"/>
<path d="M512.874 494.464C512.874 495.594 511.958 496.511 510.828 496.511C509.697 496.511 508.781 495.594 508.781 494.464C508.781 493.334 509.697 492.418 510.828 492.418C511.958 492.418 512.874 493.334 512.874 494.464Z" fill="#00D7B0"/>
<path d="M522.691 425.395C522.691 426.526 521.775 427.442 520.645 427.442C519.515 427.442 518.599 426.526 518.599 425.395C518.599 424.265 519.515 423.349 520.645 423.349C521.775 423.349 522.691 424.265 522.691 425.395Z" fill="#00D7B0"/>
<path d="M487.044 372.187C487.044 373.317 486.128 374.234 484.998 374.234C483.868 374.234 482.951 373.317 482.951 372.187C482.951 371.057 483.868 370.141 484.998 370.141C486.128 370.141 487.044 371.057 487.044 372.187Z" fill="#00D7B0"/>
<path d="M570.304 314.374C570.304 315.505 569.388 316.421 568.258 316.421C567.127 316.421 566.211 315.505 566.211 314.374C566.211 313.244 567.127 312.328 568.258 312.328C569.388 312.328 570.304 313.244 570.304 314.374Z" fill="#00D7B0"/>
<path d="M626.871 353.769C626.871 354.899 625.955 355.815 624.824 355.815C623.694 355.815 622.778 354.899 622.778 353.769C622.778 352.639 623.694 351.722 624.824 351.722C625.955 351.722 626.871 352.639 626.871 353.769Z" fill="#00D7B0"/>
<path d="M613.053 371.164C613.053 372.294 612.137 373.21 611.007 373.21C609.876 373.21 608.96 372.294 608.96 371.164C608.96 370.034 609.876 369.117 611.007 369.117C612.137 369.117 613.053 370.034 613.053 371.164Z" fill="#00D7B0"/>
<path d="M613.053 458.29C613.053 459.421 612.137 460.337 611.007 460.337C609.876 460.337 608.96 459.421 608.96 458.29C608.96 457.16 609.876 456.244 611.007 456.244C612.137 456.244 613.053 457.16 613.053 458.29Z" fill="#00D7B0"/>
<path d="M645.48 382.931C645.48 384.061 644.563 384.978 643.433 384.978C642.303 384.978 641.387 384.061 641.387 382.931C641.387 381.801 642.303 380.885 643.433 380.885C644.563 380.885 645.48 381.801 645.48 382.931Z" fill="#00D7B0"/>
<path d="M768.266 420.279C768.266 421.409 767.35 422.326 766.22 422.326C765.09 422.326 764.173 421.409 764.173 420.279C764.173 419.149 765.09 418.233 766.22 418.233C767.35 418.233 768.266 419.149 768.266 420.279Z" fill="#00D7B0"/>
<path d="M735.255 339.955C735.255 341.086 734.339 342.002 733.209 342.002C732.078 342.002 731.162 341.086 731.162 339.955C731.162 338.825 732.078 337.909 733.209 337.909C734.339 337.909 735.255 338.825 735.255 339.955Z" fill="#00D7B0"/>
<path d="M745.107 463.767C745.107 464.897 744.19 465.813 743.06 465.813C741.93 465.813 741.014 464.897 741.014 463.767C741.014 462.637 741.93 461.72 743.06 461.72C744.19 461.72 745.107 462.637 745.107 463.767Z" fill="#00D7B0"/>
<path d="M871.355 432.046C871.355 433.177 870.438 434.093 869.308 434.093C868.178 434.093 867.262 433.177 867.262 432.046C867.262 430.916 868.178 430 869.308 430C870.438 430 871.355 430.916 871.355 432.046Z" fill="#00D7B0"/>
<path d="M904.173 485.766C904.173 486.897 903.256 487.813 902.126 487.813C900.996 487.813 900.079 486.897 900.079 485.766C900.079 484.636 900.996 483.72 902.126 483.72C903.256 483.72 904.173 484.636 904.173 485.766Z" fill="#00D7B0"/>
<path d="M889.522 403.907C889.522 405.038 888.606 405.954 887.475 405.954C886.345 405.954 885.429 405.038 885.429 403.907C885.429 402.777 886.345 401.861 887.475 401.861C888.606 401.861 889.522 402.777 889.522 403.907Z" fill="#00D7B0"/>
<path d="M887.252 316.421C887.252 317.551 886.336 318.467 885.206 318.467C884.075 318.467 883.159 317.551 883.159 316.421C883.159 315.291 884.075 314.374 885.206 314.374C886.336 314.374 887.252 315.291 887.252 316.421Z" fill="#00D7B0"/>
<path d="M1014.87 410.047C1014.87 411.177 1013.95 412.093 1012.82 412.093C1011.69 412.093 1010.78 411.177 1010.78 410.047C1010.78 408.917 1011.69 408 1012.82 408C1013.95 408 1014.87 408.917 1014.87 410.047Z" fill="#00D7B0"/>
<path d="M1056.31 347.118C1056.31 348.248 1055.39 349.164 1054.26 349.164C1053.13 349.164 1052.22 348.248 1052.22 347.118C1052.22 345.988 1053.13 345.071 1054.26 345.071C1055.39 345.071 1056.31 345.988 1056.31 347.118Z" fill="#00D7B0"/>
<path d="M1078.31 442.279C1078.31 443.409 1077.39 444.325 1076.26 444.325C1075.13 444.325 1074.22 443.409 1074.22 442.279C1074.22 441.149 1075.13 440.232 1076.26 440.232C1077.39 440.232 1078.31 441.149 1078.31 442.279Z" fill="#00D7B0"/>
<path d="M1178.59 432.046C1178.59 433.177 1177.67 434.093 1176.54 434.093C1175.41 434.093 1174.49 433.177 1174.49 432.046C1174.49 430.916 1175.41 430 1176.54 430C1177.67 430 1178.59 430.916 1178.59 432.046Z" fill="#00D7B0"/>
<path d="M1145.84 485.766C1145.84 486.897 1144.93 487.813 1143.8 487.813C1142.67 487.813 1141.75 486.897 1141.75 485.766C1141.75 484.636 1142.67 483.72 1143.8 483.72C1144.93 483.72 1145.84 484.636 1145.84 485.766Z" fill="#00D7B0"/>
<path d="M1242.03 500.092C1242.03 501.222 1241.11 502.138 1239.98 502.138C1238.85 502.138 1237.94 501.222 1237.94 500.092C1237.94 498.962 1238.85 498.045 1239.98 498.045C1241.11 498.045 1242.03 498.962 1242.03 500.092Z" fill="#00D7B0"/>
<path d="M1259.93 417.721C1259.93 418.851 1259.02 419.768 1257.89 419.768C1256.76 419.768 1255.84 418.851 1255.84 417.721C1255.84 416.591 1256.76 415.675 1257.89 415.675C1259.02 415.675 1259.93 416.591 1259.93 417.721Z" fill="#00D7B0"/>
<path d="M1304.45 463.255C1304.45 464.386 1303.53 465.302 1302.4 465.302C1301.27 465.302 1300.35 464.386 1300.35 463.255C1300.35 462.125 1301.27 461.209 1302.4 461.209C1303.53 461.209 1304.45 462.125 1304.45 463.255Z" fill="#00D7B0"/>
<path d="M1376.07 455.39C1376.07 456.52 1375.16 457.436 1374.02 457.436C1372.89 457.436 1371.98 456.52 1371.98 455.39C1371.98 454.26 1372.89 453.343 1374.02 453.343C1375.16 453.343 1376.07 454.26 1376.07 455.39Z" fill="#00D7B0"/>
<path d="M1382.72 383.954C1382.72 385.085 1381.81 386.001 1380.68 386.001C1379.55 386.001 1378.63 385.085 1378.63 383.954C1378.63 382.824 1379.55 381.908 1380.68 381.908C1381.81 381.908 1382.72 382.824 1382.72 383.954Z" fill="#00D7B0"/>
<path d="M1478.91 314.374C1478.91 315.505 1477.99 316.421 1476.86 316.421C1475.73 316.421 1474.81 315.505 1474.81 314.374C1474.81 313.244 1475.73 312.328 1476.86 312.328C1477.99 312.328 1478.91 313.244 1478.91 314.374Z" fill="#00D7B0"/>
<path d="M1422.12 353.769C1422.12 354.899 1421.2 355.815 1420.07 355.815C1418.94 355.815 1418.02 354.899 1418.02 353.769C1418.02 352.639 1418.94 351.722 1420.07 351.722C1421.2 351.722 1422.12 352.639 1422.12 353.769Z" fill="#00D7B0"/>
<path d="M1504.49 408C1504.49 409.131 1503.57 410.047 1502.44 410.047C1501.31 410.047 1500.39 409.131 1500.39 408C1500.39 406.87 1501.31 405.954 1502.44 405.954C1503.57 405.954 1504.49 406.87 1504.49 408Z" fill="#00D7B0"/>
<path d="M1440.02 447.395C1440.02 448.525 1439.11 449.441 1437.98 449.441C1436.85 449.441 1435.93 448.525 1435.93 447.395C1435.93 446.265 1436.85 445.349 1437.98 445.349C1439.11 445.349 1440.02 446.265 1440.02 447.395Z" fill="#00D7B0"/>
<path d="M1520.35 505.208C1520.35 506.338 1519.43 507.255 1518.3 507.255C1517.17 507.255 1516.26 506.338 1516.26 505.208C1516.26 504.078 1517.17 503.162 1518.3 503.162C1519.43 503.162 1520.35 504.078 1520.35 505.208Z" fill="#00D7B0"/>
<path d="M1555.14 432.046C1555.14 433.177 1554.22 434.093 1553.09 434.093C1551.96 434.093 1551.04 433.177 1551.04 432.046C1551.04 430.916 1551.96 430 1553.09 430C1554.22 430 1555.14 430.916 1555.14 432.046Z" fill="#00D7B0"/>
<path d="M1562.3 372.699C1562.3 373.829 1561.38 374.745 1560.25 374.745C1559.12 374.745 1558.21 373.829 1558.21 372.699C1558.21 371.569 1559.12 370.652 1560.25 370.652C1561.38 370.652 1562.3 371.569 1562.3 372.699Z" fill="#00D7B0"/>
<path d="M1711.72 351.211C1711.72 352.341 1710.8 353.257 1709.67 353.257C1708.54 353.257 1707.63 352.341 1707.63 351.211C1707.63 350.081 1708.54 349.164 1709.67 349.164C1710.8 349.164 1711.72 350.081 1711.72 351.211Z" fill="#00D7B0"/>
<path d="M1652.86 384.466C1652.86 385.596 1651.94 386.512 1650.81 386.512C1649.68 386.512 1648.76 385.596 1648.76 384.466C1648.76 383.336 1649.68 382.42 1650.81 382.42C1651.94 382.42 1652.86 383.336 1652.86 384.466Z" fill="#00D7B0"/>
<path d="M1652.86 424.372C1652.86 425.502 1651.94 426.419 1650.81 426.419C1649.68 426.419 1648.76 425.502 1648.76 424.372C1648.76 423.242 1649.68 422.326 1650.81 422.326C1651.94 422.326 1652.86 423.242 1652.86 424.372Z" fill="#00D7B0"/>
<path d="M1685.09 494.464C1685.09 495.594 1684.17 496.511 1683.04 496.511C1681.91 496.511 1681 495.594 1681 494.464C1681 493.334 1681.91 492.418 1683.04 492.418C1684.17 492.418 1685.09 493.334 1685.09 494.464Z" fill="#00D7B0"/>
<path d="M1136.63 368.094C1136.63 369.224 1135.72 370.141 1134.59 370.141C1133.46 370.141 1132.54 369.224 1132.54 368.094C1132.54 366.964 1133.46 366.048 1134.59 366.048C1135.72 366.048 1136.63 366.964 1136.63 368.094Z" fill="#00D7B0"/>
<path d="M1314.68 339.955C1314.68 341.086 1313.76 342.002 1312.63 342.002C1311.5 342.002 1310.58 341.086 1310.58 339.955C1310.58 338.825 1311.5 337.909 1312.63 337.909C1313.76 337.909 1314.68 338.825 1314.68 339.955Z" fill="#00D7B0"/>
<path d="M1191.89 316.421C1191.89 317.551 1190.97 318.467 1189.84 318.467C1188.71 318.467 1187.8 317.551 1187.8 316.421C1187.8 315.291 1188.71 314.374 1189.84 314.374C1190.97 314.374 1191.89 315.291 1191.89 316.421Z" fill="#00D7B0"/>
<path d="M1087.01 471.441C1087.01 472.571 1086.09 473.488 1084.96 473.488C1083.83 473.488 1082.91 472.571 1082.91 471.441C1082.91 470.311 1083.83 469.395 1084.96 469.395C1086.09 469.395 1087.01 470.311 1087.01 471.441Z" fill="#00D7B0"/>
<path d="M968.312 441.256C968.312 442.386 967.396 443.302 966.265 443.302C965.135 443.302 964.219 442.386 964.219 441.256C964.219 440.125 965.135 439.209 966.265 439.209C967.396 439.209 968.312 440.125 968.312 441.256Z" fill="#00D7B0"/>
<path d="M1007.71 500.603C1007.71 501.734 1006.79 502.65 1005.66 502.65C1004.53 502.65 1003.61 501.734 1003.61 500.603C1003.61 499.473 1004.53 498.557 1005.66 498.557C1006.79 498.557 1007.71 499.473 1007.71 500.603Z" fill="#00D7B0"/>
<path d="M675.153 476.557C675.153 477.688 674.237 478.604 673.107 478.604C671.977 478.604 671.06 477.688 671.06 476.557C671.06 475.427 671.977 474.511 673.107 474.511C674.237 474.511 675.153 475.427 675.153 476.557Z" fill="#00D7B0"/>
<path d="M1724.03 407.93C1724.03 409.06 1723.11 409.976 1721.98 409.976C1720.85 409.976 1719.94 409.06 1719.94 407.93C1719.94 406.799 1720.85 405.883 1721.98 405.883C1723.11 405.883 1724.03 406.799 1724.03 407.93Z" fill="#00D7B0"/>
<path d="M1724.48 464.904C1724.48 466.034 1723.57 466.95 1722.44 466.95C1721.31 466.95 1720.39 466.034 1720.39 464.904C1720.39 463.774 1721.31 462.858 1722.44 462.858C1723.57 462.858 1724.48 463.774 1724.48 464.904Z" fill="#00D7B0"/>
<path d="M1813.36 442.114C1813.36 443.244 1812.44 444.161 1811.31 444.161C1810.18 444.161 1809.27 443.244 1809.27 442.114C1809.27 440.984 1810.18 440.068 1811.31 440.068C1812.44 440.068 1813.36 440.984 1813.36 442.114Z" fill="#00D7B0"/>
<path d="M1880.36 438.003C1880.36 439.133 1879.45 440.049 1878.32 440.049C1877.19 440.049 1876.27 439.133 1876.27 438.003C1876.27 436.873 1877.19 435.956 1878.32 435.956C1879.45 435.956 1880.36 436.873 1880.36 438.003Z" fill="#00D7B0"/>
<path d="M1876.49 348.444C1876.49 349.574 1875.58 350.491 1874.45 350.491C1873.32 350.491 1872.4 349.574 1872.4 348.444C1872.4 347.314 1873.32 346.398 1874.45 346.398C1875.58 346.398 1876.49 347.314 1876.49 348.444Z" fill="#00D7B0"/>
<path d="M1809.27 329.757C1809.27 330.887 1808.36 331.803 1807.23 331.803C1806.1 331.803 1805.18 330.887 1805.18 329.757C1805.18 328.626 1806.1 327.71 1807.23 327.71C1808.36 327.71 1809.27 328.626 1809.27 329.757Z" fill="#00D7B0"/>
<path d="M1398.37 222.645C1398.37 223.775 1397.45 224.692 1396.32 224.692C1395.19 224.692 1394.27 223.775 1394.27 222.645C1394.27 221.515 1395.19 220.599 1396.32 220.599C1397.45 220.599 1398.37 221.515 1398.37 222.645Z" fill="#00D7B0"/>
<path d="M1318.77 294.205C1318.77 295.335 1317.85 296.251 1316.72 296.251C1315.59 296.251 1314.68 295.335 1314.68 294.205C1314.68 293.074 1315.59 292.158 1316.72 292.158C1317.85 292.158 1318.77 293.074 1318.77 294.205Z" fill="#00D7B0"/>
<path d="M1151.09 290.112C1151.09 291.242 1150.18 292.158 1149.05 292.158C1147.92 292.158 1147 291.242 1147 290.112C1147 288.981 1147.92 288.065 1149.05 288.065C1150.18 288.065 1151.09 288.981 1151.09 290.112Z" fill="#00D7B0"/>
<path d="M1132.54 436.412C1132.54 437.542 1131.63 438.459 1130.5 438.459C1129.36 438.459 1128.45 437.542 1128.45 436.412C1128.45 435.282 1129.36 434.366 1130.5 434.366C1131.63 434.366 1132.54 435.282 1132.54 436.412Z" fill="#00D7B0"/>
<path d="M1125.79 463.304C1125.79 464.434 1124.88 465.35 1123.75 465.35C1122.62 465.35 1121.7 464.434 1121.7 463.304C1121.7 462.174 1122.62 461.257 1123.75 461.257C1124.88 461.257 1125.79 462.174 1125.79 463.304Z" fill="#00D7B0"/>
<path d="M881.496 450.086C881.496 451.216 880.579 452.132 879.449 452.132C878.319 452.132 877.403 451.216 877.403 450.086C877.403 448.956 878.319 448.04 879.449 448.04C880.579 448.04 881.496 448.956 881.496 450.086Z" fill="#00D7B0"/>
<path d="M843.656 280.987C843.656 282.117 842.739 283.033 841.609 283.033C840.479 283.033 839.563 282.117 839.563 280.987C839.563 279.856 840.479 278.94 841.609 278.94C842.739 278.94 843.656 279.856 843.656 280.987Z" fill="#00D7B0"/>
<path d="M832.949 420.279C832.949 421.409 832.033 422.326 830.903 422.326C829.772 422.326 828.856 421.409 828.856 420.279C828.856 419.149 829.772 418.233 830.903 418.233C832.033 418.233 832.949 419.149 832.949 420.279Z" fill="#00D7B0"/>
<path d="M704.193 458.29C704.193 459.421 703.277 460.337 702.147 460.337C701.016 460.337 700.1 459.421 700.1 458.29C700.1 457.16 701.016 456.244 702.147 456.244C703.277 456.244 704.193 457.16 704.193 458.29Z" fill="#00D7B0"/>
<path d="M742.148 435.005C742.148 436.135 741.232 437.051 740.102 437.051C738.972 437.051 738.056 436.135 738.056 435.005C738.056 433.874 738.972 432.958 740.102 432.958C741.232 432.958 742.148 433.874 742.148 435.005Z" fill="#00D7B0"/>
<path d="M665.674 435.916C665.674 437.046 664.758 437.963 663.627 437.963C662.497 437.963 661.581 437.046 661.581 435.916C661.581 434.786 662.497 433.87 663.627 433.87C664.758 433.87 665.674 434.786 665.674 435.916Z" fill="#00D7B0"/>
<path d="M269.59 369.187C269.59 370.317 268.674 371.234 267.544 371.234C266.413 371.234 265.497 370.317 265.497 369.187C265.497 368.057 266.413 367.141 267.544 367.141C268.674 367.141 269.59 368.057 269.59 369.187Z" fill="#00D7B0"/>
<path d="M225.378 301.265C225.378 302.395 224.462 303.311 223.332 303.311C222.201 303.311 221.285 302.395 221.285 301.265C221.285 300.135 222.201 299.218 223.332 299.218C224.462 299.218 225.378 300.135 225.378 301.265Z" fill="#00D7B0"/>
<path d="M164.757 326.333C164.757 327.464 163.841 328.38 162.711 328.38C161.581 328.38 160.664 327.464 160.664 326.333C160.664 325.203 161.581 324.287 162.711 324.287C163.841 324.287 164.757 325.203 164.757 326.333Z" fill="#00D7B0"/>
<path d="M158.376 394.256C158.376 395.386 157.46 396.302 156.33 396.302C155.2 396.302 154.283 395.386 154.283 394.256C154.283 393.126 155.2 392.209 156.33 392.209C157.46 392.209 158.376 393.126 158.376 394.256Z" fill="#00D7B0"/>
<path d="M235.182 461.937C235.182 463.067 234.266 463.983 233.136 463.983C232.005 463.983 231.089 463.067 231.089 461.937C231.089 460.806 232.005 459.89 233.136 459.89C234.266 459.89 235.182 460.806 235.182 461.937Z" fill="#00D7B0"/>
<path d="M1929.86 200.317C1929.86 201.447 1928.95 202.363 1927.82 202.363C1926.69 202.363 1925.77 201.447 1925.77 200.317C1925.77 199.187 1926.69 198.271 1927.82 198.271C1928.95 198.271 1929.86 199.187 1929.86 200.317Z" fill="#00D7B0"/>
<path d="M1958 339.889C1958 341.02 1957.08 341.936 1955.95 341.936C1954.82 341.936 1953.91 341.02 1953.91 339.889C1953.91 338.759 1954.82 337.843 1955.95 337.843C1957.08 337.843 1958 338.759 1958 339.889Z" fill="#00D7B0"/>
<path d="M1942.94 494.277C1942.94 495.407 1942.02 496.324 1940.89 496.324C1939.76 496.324 1938.85 495.407 1938.85 494.277C1938.85 493.147 1939.76 492.23 1940.89 492.23C1942.02 492.23 1942.94 493.147 1942.94 494.277Z" fill="#00D7B0"/>
<path d="M1895.9 515.752C1895.9 516.882 1894.98 517.799 1893.85 517.799C1892.72 517.799 1891.8 516.882 1891.8 515.752C1891.8 514.622 1892.72 513.705 1893.85 513.705C1894.98 513.705 1895.9 514.622 1895.9 515.752Z" fill="#00D7B0"/>
<path d="M1724.48 502.678C1724.48 503.808 1723.57 504.724 1722.44 504.724C1721.31 504.724 1720.39 503.808 1720.39 502.678C1720.39 501.548 1721.31 500.631 1722.44 500.631C1723.57 500.631 1724.48 501.548 1724.48 502.678Z" fill="#00D7B0"/>
<path d="M1349.46 511.964C1349.46 513.095 1348.54 514.011 1347.41 514.011C1346.28 514.011 1345.37 513.095 1345.37 511.964C1345.37 510.834 1346.28 509.918 1347.41 509.918C1348.54 509.918 1349.46 510.834 1349.46 511.964Z" fill="#00D7B0"/>
<path d="M1184.63 480.072C1184.63 481.202 1183.71 482.119 1182.58 482.119C1181.45 482.119 1180.53 481.202 1180.53 480.072C1180.53 478.942 1181.45 478.026 1182.58 478.026C1183.71 478.026 1184.63 478.942 1184.63 480.072Z" fill="#00D7B0"/>
<path d="M806.782 500.386C806.782 501.517 805.865 502.433 804.735 502.433C803.605 502.433 802.688 501.517 802.688 500.386C802.688 499.256 803.605 498.34 804.735 498.34C805.865 498.34 806.782 499.256 806.782 500.386Z" fill="#00D7B0"/>
<path d="M374.655 507.046C374.655 508.176 373.739 509.092 372.608 509.092C371.478 509.092 370.562 508.176 370.562 507.046C370.562 505.916 371.478 504.999 372.608 504.999C373.739 504.999 374.655 505.916 374.655 507.046Z" fill="#00D7B0"/>
<path d="M304.007 502.128C304.007 503.258 303.091 504.174 301.961 504.174C300.83 504.174 299.914 503.258 299.914 502.128C299.914 500.997 300.83 500.081 301.961 500.081C303.091 500.081 304.007 500.997 304.007 502.128Z" fill="#00D7B0"/>
<path d="M164.757 521.861C164.757 522.992 163.841 523.908 162.711 523.908C161.581 523.908 160.665 522.992 160.665 521.861C160.665 520.731 161.581 519.815 162.711 519.815C163.841 519.815 164.757 520.731 164.757 521.861Z" fill="#00D7B0"/>
<path d="M60.6556 485.571C60.6556 486.701 59.7394 487.618 58.6091 487.618C57.4789 487.618 56.5627 486.701 56.5627 485.571C56.5627 484.441 57.4789 483.525 58.6091 483.525C59.7394 483.525 60.6556 484.441 60.6556 485.571Z" fill="#00D7B0"/>
<path d="M70.2474 297.172C70.2474 298.302 69.3314 299.218 68.2012 299.218C67.0709 299.218 66.1545 298.302 66.1545 297.172C66.1545 296.042 67.0709 295.125 68.2012 295.125C69.3314 295.125 70.2474 296.042 70.2474 297.172Z" fill="#00D7B0"/>
<path d="M92.8832 194.513C92.8832 195.643 91.9669 196.559 90.8367 196.559C89.7064 196.559 88.7903 195.643 88.7903 194.513C88.7903 193.383 89.7064 192.466 90.8367 192.466C91.9669 192.466 92.8832 193.383 92.8832 194.513Z" fill="#00D7B0"/>
<path d="M24.3131 136.599C24.3131 137.73 23.397 138.646 22.2667 138.646C21.1365 138.646 20.2201 137.73 20.2201 136.599C20.2201 135.469 21.1365 134.553 22.2667 134.553C23.397 134.553 24.3131 135.469 24.3131 136.599Z" fill="#00D7B0"/>
<path d="M1.9873 2.38242C1.9873 3.51265 1.07129 4.42891 -0.0589599 4.42891C-1.18921 4.42891 -2.10559 3.51265 -2.10559 2.38242C-2.10559 1.25218 -1.18921 0.335961 -0.05896 0.335961C1.07129 0.335961 1.9873 1.25218 1.9873 2.38242Z" fill="#00D7B0"/>
<path d="M-13.9072 117.212C-13.9072 118.343 -14.8232 119.259 -15.9535 119.259C-17.0837 119.259 -18.0001 118.343 -18.0001 117.212C-18.0001 116.082 -17.0837 115.166 -15.9535 115.166C-14.8232 115.166 -13.9072 116.082 -13.9072 117.212Z" fill="#00D7B0"/>
<path d="M-7.26013 352.289C-7.26013 353.419 -8.17627 354.335 -9.30651 354.335C-10.4368 354.335 -11.3531 353.419 -11.3531 352.289C-11.3531 351.158 -10.4368 350.242 -9.30651 350.242C-8.17627 350.242 -7.26013 351.158 -7.26013 352.289Z" fill="#00D7B0"/>
<path d="M1.98731 510.878C1.98731 512.008 1.0713 512.925 -0.0589538 512.925C-1.1892 512.925 -2.10558 512.008 -2.10558 510.878C-2.10558 509.748 -1.1892 508.832 -0.0589539 508.832C1.0713 508.832 1.98731 509.748 1.98731 510.878Z" fill="#00D7B0"/>
<path d="M1229.55 373.187C1229.55 374.317 1228.63 375.234 1227.5 375.234C1226.37 375.234 1225.45 374.317 1225.45 373.187C1225.45 372.057 1226.37 371.141 1227.5 371.141C1228.63 371.141 1229.55 372.057 1229.55 373.187Z" fill="#00D7B0"/>
</svg>
