<svg width="78" height="88" viewBox="0 0 78 88" fill="none" xmlns="http://www.w3.org/2000/svg">
<path d="M39.3335 44C27.1304 44 17.3335 34.2031 17.3335 22C17.3335 9.96875 27.1304 0 39.3335 0C51.3647 0 61.3335 9.96875 61.3335 22C61.3335 34.2031 51.3647 44 39.3335 44ZM54.6304 49.5C67.3491 49.5 77.8335 59.9844 77.8335 72.7031V79.75C77.8335 84.3906 74.0522 88 69.5835 88H9.0835C4.44287 88 0.833496 84.3906 0.833496 79.75V72.7031C0.833496 59.9844 11.146 49.5 23.8647 49.5H26.7866C30.5679 51.3906 34.8647 52.25 39.3335 52.25C43.8022 52.25 47.9272 51.3906 51.7085 49.5H54.6304Z" fill="url(#paint0_linear_2913_31)" fill-opacity="0.05"/>
<defs>
<linearGradient id="paint0_linear_2913_31" x1="104.667" y1="-21" x2="-25.3335" y2="97" gradientUnits="userSpaceOnUse">
<stop stop-color="#00A894"/>
<stop offset="1" stop-color="#00423A"/>
</linearGradient>
</defs>
</svg>
