<svg width="86" height="86" viewBox="0 0 86 86" fill="none" xmlns="http://www.w3.org/2000/svg">
<path d="M43.3335 0.375C66.8804 0.375 85.9585 19.4531 85.9585 43C85.9585 66.5469 66.8804 85.625 43.3335 85.625C19.7866 85.625 0.708496 66.5469 0.708496 43C0.708496 19.4531 19.7866 0.375 43.3335 0.375ZM59.146 54.1719C59.4897 53.8281 59.8335 53.1406 59.8335 52.4531C59.8335 51.7656 59.3179 50.9062 58.8022 50.3906L48.8335 43V18.25C48.8335 16.875 47.4585 15.5 46.0835 15.5H40.5835C39.0366 15.5 37.8335 16.875 37.8335 18.25V45.0625C37.8335 46.9531 38.8647 49.3594 40.4116 50.3906L51.9272 58.9844C52.271 59.3281 52.9585 59.6719 53.4741 59.6719C54.3335 59.6719 55.1929 59.1562 55.7085 58.4688L59.146 54.1719Z" fill="url(#paint0_linear_2913_35)" fill-opacity="0.05"/>
<defs>
<linearGradient id="paint0_linear_2913_35" x1="108.667" y1="-22" x2="-21.3335" y2="96" gradientUnits="userSpaceOnUse">
<stop stop-color="#00A894"/>
<stop offset="1" stop-color="#00423A"/>
</linearGradient>
</defs>
</svg>
