<svg width="28" height="24" viewBox="0 0 28 24" fill="none" xmlns="http://www.w3.org/2000/svg">
<path d="M8.3335 19.5V18H11.3335V19.5H8.3335ZM26.3335 10.5C27.1304 10.5 27.8335 11.2031 27.8335 12V18C27.8335 18.8438 27.1304 19.5 26.3335 19.5H24.8335C24.8335 21.9844 22.771 24 20.3335 24H8.3335C5.84912 24 3.8335 21.9844 3.8335 19.5H2.3335C1.48975 19.5 0.833496 18.8438 0.833496 18V12C0.833496 11.2031 1.48975 10.5 2.28662 10.5H2.3335H3.8335V9C3.8335 6.5625 5.84912 4.5 8.3335 4.5H13.5835V0.75C13.5835 0.375 13.9116 0 14.3335 0C14.7085 0 15.0835 0.375 15.0835 0.75V4.5H20.3335C22.771 4.5 24.8335 6.5625 24.8335 9V10.5H26.3335ZM3.8335 18V12H2.3335V18H3.8335ZM23.3335 19.5V9C23.3335 7.35938 21.9741 6 20.3335 6H8.3335H8.28662C6.646 6 5.3335 7.35938 5.3335 9V19.5C5.3335 21.1875 6.646 22.5 8.3335 22.5H20.3335C21.9741 22.5 23.2866 21.1875 23.3335 19.5ZM26.3335 18V12H24.8335V18H26.3335ZM18.8335 9C20.4741 9.04688 21.7866 10.3594 21.8335 12C21.8335 13.6875 20.4741 15 18.8335 15C17.146 15 15.8335 13.6875 15.8335 12C15.8335 10.3594 17.146 9 18.8335 9ZM18.8335 13.5C19.6304 13.5 20.3335 12.8438 20.3335 12.0469V12C20.3335 11.2031 19.6304 10.5 18.8335 10.5C17.9897 10.5 17.3335 11.2031 17.3335 12C17.3335 12.8438 17.9897 13.5 18.8335 13.5ZM17.3335 19.5V18H20.3335V19.5H17.3335ZM12.8335 19.5V18H15.8335V19.5H12.8335ZM9.8335 9C11.4741 9.04688 12.7866 10.3594 12.8335 12C12.8335 13.6875 11.4741 15 9.8335 15C8.146 15 6.8335 13.6875 6.8335 12C6.8335 10.3594 8.146 9 9.8335 9ZM9.8335 13.5C10.6304 13.5 11.3335 12.8438 11.3335 12.0469V12C11.3335 11.2031 10.6304 10.5 9.8335 10.5C8.98975 10.5 8.3335 11.2031 8.3335 12C8.3335 12.8438 8.98975 13.5 9.8335 13.5Z" fill="#00A894"/>
</svg>
