<svg width="78" height="88" viewBox="0 0 78 88" fill="none" xmlns="http://www.w3.org/2000/svg">
<path d="M77.8335 12.7188V20.4531C77.8335 27.5 60.4741 33 39.3335 33C18.021 33 0.833496 27.5 0.833496 20.4531V12.7188C0.833496 5.67188 18.021 0 39.3335 0C60.4741 0 77.8335 5.67188 77.8335 12.7188ZM77.8335 30.25V47.9531C77.8335 55 60.4741 60.5 39.3335 60.5C18.021 60.5 0.833496 55 0.833496 47.9531V30.25C9.0835 36.0938 24.2085 38.6719 39.3335 38.6719C54.2866 38.6719 69.4116 36.0938 77.8335 30.25ZM77.8335 57.75V75.4531C77.8335 82.5 60.4741 88 39.3335 88C18.021 88 0.833496 82.5 0.833496 75.4531V57.75C9.0835 63.5938 24.2085 66.1719 39.3335 66.1719C54.2866 66.1719 69.4116 63.5938 77.8335 57.75Z" fill="url(#paint0_linear_1037_2721)" fill-opacity="0.05"/>
<defs>
<linearGradient id="paint0_linear_1037_2721" x1="104.667" y1="-21" x2="-25.3335" y2="97" gradientUnits="userSpaceOnUse">
<stop stop-color="#00A894"/>
<stop offset="1" stop-color="#00423A"/>
</linearGradient>
</defs>
</svg>
