<svg width="46px" height="46px" xmlns="http://www.w3.org/2000/svg" viewBox="0 0 46 46">
<style type="text/css">
	.st0{fill:#51A48E;}
</style>
<path class="st0" d="M35.3,16.1c1.6,1.4,2.7,3.4,2.7,5.6v7c0,2.7-1.1,5.2-3,7l-2,2.1v4.5c0,0.4-0.3,0.6-0.6,0.6h-1.3
	c-0.4,0-0.6-0.2-0.6-0.6v-5.6l2.7-2.7c1.4-1.4,2.3-3.4,2.3-5.3v-7c0-2.7-2.3-5-5-5h-6.3c-0.6,0-1.3,0.6-1.3,1.3v0.1
	c0,2,1.7,3.7,3.8,3.7h3.1c0.4,0,0.6,0.3,0.6,0.6v1.3c0,0.3-0.2,0.5-0.5,0.6c-3.5,0.2-5.1,1.9-7.5,5.6l-0.5,0.8
	c-0.1,0.2-0.3,0.2-0.5,0.2c-0.2,0-0.3,0-0.4-0.1l-1-0.7c-0.2-0.1-0.3-0.3-0.3-0.5c0-0.1,0.1-0.2,0.2-0.3c1.8-2.7,2.9-4.3,4.5-5.5
	c-1.6-0.7-2.3-1.8-2.4-1.8c-0.6,0.6-1.6,1-2.6,1H18c-1,0-1.9-0.3-2.5-0.9C14.8,22.7,13.9,23,13,23h-1.3c-0.5,0-0.9-0.1-1.3-0.2v3.5
	c0,2,1.1,4.8,2.5,6.2l2.5,2.4v7.3c0,0.4-0.3,0.6-0.6,0.6h-1.3c-0.4,0-0.6-0.2-0.6-0.6V36l-1.7-1.7c-2.1-2.1-3.3-4.9-3.3-8V11.8
	C8,9.7,9.6,8,11.8,8H13c0.5,0,0.9,0.2,1.3,0.3c0.5-1.6,1.9-2.8,3.7-2.8h1.3c0.5,0,0.9,0.2,1.3,0.3C21,4.3,22.5,3,24.3,3h1.3
	c1.7,0,3.1,1.3,3.6,2.8c0.4-0.2,0.9-0.3,1.4-0.3h1.3c2,0,3.8,1.7,3.8,3.8v6.3C35.5,15.7,35.4,16,35.3,16.1z M14.3,19.3v-7.5
	c0-0.6-0.6-1.3-1.3-1.3h-1.3c-0.7,0-1.3,0.6-1.3,1.3v7.5c0,0.7,0.5,1.3,1.3,1.3H13C13.6,20.5,14.3,20,14.3,19.3z M20.5,19.3v-10
	c0-0.6-0.6-1.3-1.3-1.3H18c-0.7,0-1.3,0.6-1.3,1.3v10c0,0.7,0.5,1.3,1.3,1.3h1.3C19.9,20.5,20.5,20,20.5,19.3z M26.8,14.3V6.8
	c0-0.6-0.6-1.3-1.3-1.3h-1.3c-0.7,0-1.3,0.6-1.3,1.3v7.7c0.4-0.1,0.8-0.2,1.2-0.2H26.8z M33,14.7V9.3C33,8.6,32.4,8,31.8,8h-1.3
	c-0.7,0-1.3,0.6-1.3,1.3v5h1.3C31.4,14.3,32.1,14.5,33,14.7z"/>
</svg>
