<svg width="46px" height="46px" xmlns="http://www.w3.org/2000/svg" viewBox="0 0 46 46">
<style type="text/css">
	.st0{fill:#51A48E;}
</style>
<path class="st0" d="M39.5,6.5c4.8,4.9,5,12.7-2,19.8l-6.7,6.6c-3.9,3.9-9.5,5.2-13.9,5.2c-2.6,0-4.8-0.4-6.2-0.9l-5.5,5.5
	C4.9,42.9,4.6,43,4.3,43C3.5,43,3,42.5,3,41.8c0-0.2,0.2-0.6,0.3-0.9l5.5-5.5c-1.4-3.6-2-13.9,4.2-20.1l6.6-6.7
	C23.6,4.7,27.6,3,31.2,3C34.4,3,37.2,4.3,39.5,6.5z M14.8,17.1c-5,4.9-4.7,12.9-3.9,16.3l17.5-17.5c0.5-0.5,1.3-0.5,1.7,0
	c0.5,0.5,0.5,1.3,0,1.7l-2.9,3h11.5c2.6-4.5,2.3-9-1-12.3c-1.8-1.8-4.1-2.7-6.5-2.7c-3.2,0-6.6,1.6-9.7,4.8L14.8,17.1z M16.9,35.6
	c2.9,0,8.4-0.5,12.1-4.4l0.6-0.6l-12.3-0.1l-4.5,4.6C13.7,35.3,15.1,35.6,16.9,35.6z M32.1,28.1c0,0,4.5-4.5,4.8-5H24.7l-5,5H32.1z"
	/>
</svg>
