<svg aria-hidden="true" style="width: 0px; height: 0px; overflow: hidden; position: absolute;" xmlns="http://www.w3.org/2000/svg">
  <symbol id="menu" viewBox="0 0 24 24">
    <path d="M21 6.99994H3V4.99994H21V6.99994Z" />
    <path d="M3 18.9999H12L12 16.9999H3V18.9999Z" />
    <path d="M3 12.9999H21L21 10.9999H3V12.9999Z" />
  </symbol>
  <symbol id="close" viewBox="0 0 24 24">
    <path d="M13.8359 12.5L18.0547 16.7188C18.2891 16.9531 18.2891 17.3828 18.0547 17.6172L17.0781 18.5938C16.8438 18.8281 16.4141 18.8281 16.1797 18.5938L12 14.375L7.78125 18.5938C7.54688 18.8281 7.11719 18.8281 6.88281 18.5938L5.90625 17.6172C5.67188 17.3828 5.67188 16.9531 5.90625 16.7188L10.125 12.5L5.90625 8.32031C5.67188 8.08594 5.67188 7.65625 5.90625 7.42188L6.88281 6.44531C7.11719 6.21094 7.54688 6.21094 7.78125 6.44531L12 10.6641L16.1797 6.44531C16.4141 6.21094 16.8438 6.21094 17.0781 6.44531L18.0547 7.42188C18.2891 7.65625 18.2891 8.08594 18.0547 8.32031L13.8359 12.5Z"/>
  </symbol>
  <symbol id="vk" viewBox="0 0 24 24">
    <path d="M23,6.1c-0.3,1.5-3.4,5.8-3.4,5.8c-0.3,0.4-0.4,0.6,0,1.1c0.2,0.2,3.4,3.3,3.8,4.7c0.2,0.7-0.1,1.1-0.9,1.1h-2.5c-0.9,0-1.2-0.7-2.9-2.4c-1.5-1.5-2.1-1.7-2.5-1.7c-0.8,0-0.6,0.3-0.6,3.2c0,0.6-0.2,0.9-1.8,0.9c-2.6,0-5.6-1.6-7.7-4.6c-3.1-4.4-4-7.7-4-8.4c0-0.4,0.2-0.7,0.9-0.7h2.5c0.6,0,0.9,0.3,1.2,1c1.2,3.6,3.3,6.7,4.1,6.7c0.3,0,0.5-0.2,0.5-1V8.2c-0.1-1.7-1-1.8-1-2.4c0-0.3,0.2-0.6,0.6-0.6h3.9c0.6,0,0.7,0.3,0.7,0.9v5c0,0.5,0.3,0.7,0.4,0.7c0.3,0,0.6-0.2,1.2-0.8c1.8-2.1,3.1-5.2,3.1-5.2c0.2-0.4,0.5-0.7,1.1-0.7h2.5C23,5.2,23.1,5.6,23,6.1z"/>
  </symbol>
  <symbol id="tg" viewBox="0 0 24 24">
    <path d="M23.4,4.1L20,20.5c-0.3,1.1-1,1.4-2,0.9l-5.3-3.9l-2.5,2.5c-0.3,0.3-0.5,0.5-1.1,0.5L9.5,15l9.8-8.8c0.5-0.4-0.1-0.6-0.7-0.2L6.5,13.6L1.3,12c-1.1-0.4-1.2-1.1,0.2-1.7L22,2.5C22.9,2.1,23.7,2.7,23.4,4.1z"/>
  </symbol>
  <symbol id="yt" viewBox="0 0 24 24">
    <path d="M23.2,6.4c0.5,1.8,0.5,5.7,0.5,5.7s0,3.8-0.5,5.7c-0.3,1-1.1,1.8-2.1,2.1c-1.8,0.5-9.2,0.5-9.2,0.5s-7.3,0-9.2-0.5c-1-0.3-1.8-1-2.1-2.1C0.3,15.9,0.3,12,0.3,12s0-3.9,0.5-5.7c0.3-1,1.1-1.8,2.1-2.1C4.7,3.8,12,3.8,12,3.8s7.3,0,9.2,0.5C22.2,4.5,23,5.3,23.2,6.4z M9.6,15.5l6.1-3.5L9.6,8.6V15.5z"/>
  </symbol>
  <symbol id="chevron_down" viewBox="0 0 20 20">
    <path d="M16.8,6.8c0.2,0.1,0.2,0.4,0,0.5l-6.5,6.5c-0.2,0.2-0.4,0.2-0.5,0L3.2,7.3C3,7.2,3,6.9,3.2,6.8l0.6-0.6C4,6,4.2,6,4.3,6.2l5.7,5.7l5.7-5.7C15.8,6,16,6,16.2,6.2L16.8,6.8z"/>
  </symbol>
  <symbol id="chevron_left" viewBox="0 0 24 24">
    <path d="M16.9,22.2c-0.2,0.2-0.6,0.2-0.8,0l-9.8-9.8c-0.2-0.2-0.2-0.6,0-0.8l9.8-9.8c0.2-0.2,0.6-0.2,0.8,0l0.9,0.9c0.2,0.2,0.2,0.6,0,0.8L9.3,12l8.5,8.5c0.2,0.2,0.2,0.6,0,0.8L16.9,22.2z"/>
  </symbol>
  <symbol id="chevron_right" viewBox="0 0 24 24">
    <path d="M7.1,1.8c0.2-0.2,0.6-0.2,0.8,0l9.8,9.8c0.2,0.2,0.2,0.6,0,0.8l-9.8,9.8c-0.2,0.2-0.6,0.2-0.8,0l-0.9-0.9c-0.2-0.2-0.2-0.6,0-0.8l8.5-8.5L6.2,3.5C6,3.3,6,2.9,6.2,2.7L7.1,1.8z"/>
  </symbol>
  <symbol id="envelope" viewBox="0 0 512 512">
    <path d="M0 128C0 92.65 28.65 64 64 64H448C483.3 64 512 92.65 512 128V384C512 419.3 483.3 448 448 448H64C28.65 448 0 419.3 0 384V128zM32 128V167.9L227.6 311.3C244.5 323.7 267.5 323.7 284.4 311.3L480 167.9V128C480 110.3 465.7 96 448 96H63.1C46.33 96 31.1 110.3 31.1 128H32zM32 207.6V384C32 401.7 46.33 416 64 416H448C465.7 416 480 401.7 480 384V207.6L303.3 337.1C275.1 357.8 236.9 357.8 208.7 337.1L32 207.6z"/>
  </symbol>
</svg>
